<svg width="40" height="40" viewBox="0 0 40 40" fill="none" xmlns="http://www.w3.org/2000/svg">
<path opacity="0.35" d="M25.5105 29.6992C26.4446 29.1518 27.5206 29.1056 28.452 29.4696C29.229 29.7734 30.1176 29.5214 30.6453 28.8676C31.5863 27.7014 32.3454 26.3784 32.8786 24.9406C33.1831 24.1188 32.8951 23.2158 32.2352 22.6474C31.4926 22.0118 31.0214 21.0654 31.0214 20C31.0214 18.9346 31.4926 17.9882 32.2338 17.3498C32.8938 16.7814 33.1831 15.8798 32.8772 15.0566C32.344 13.6202 31.5863 12.2958 30.6439 11.1296C30.1163 10.4758 29.2276 10.2238 28.4506 10.5276C27.5206 10.8944 26.4446 10.8482 25.5105 10.3008C24.5737 9.7506 23.995 8.8224 23.8435 7.8158C23.7195 6.9926 23.0774 6.3346 22.2687 6.1946C21.5303 6.0672 20.7725 6 19.9996 6C19.2267 6 18.469 6.0672 17.7305 6.1946C16.9218 6.3346 16.2811 6.9926 16.1558 7.8158C16.0042 8.8224 15.4256 9.7506 14.4887 10.3008C13.5546 10.8482 12.4786 10.8944 11.5473 10.529C10.7702 10.2252 9.88158 10.4772 9.35392 11.131C8.41293 12.2972 7.65518 13.6202 7.122 15.058C6.81614 15.8798 7.10547 16.7828 7.7654 17.3498C8.50661 17.9882 8.9778 18.9346 8.9778 20C8.9778 21.0654 8.50661 22.0118 7.7654 22.6502C7.10547 23.2186 6.81614 24.1202 7.122 24.9434C7.65518 26.3798 8.41293 27.7042 9.35529 28.8704C9.88296 29.5242 10.7716 29.7762 11.5486 29.4724C12.4786 29.1056 13.5546 29.1518 14.4887 29.6992C15.4256 30.2494 16.0042 31.1776 16.1558 32.1842C16.2797 33.0074 16.9218 33.6654 17.7305 33.8054C18.469 33.9328 19.2267 34 19.9996 34C20.7725 34 21.5303 33.9328 22.2687 33.8054C23.0774 33.6668 23.7195 33.0088 23.8435 32.1842C23.995 31.1776 24.5737 30.2494 25.5105 29.6992Z" fill="#4CC88C"/>
<path d="M20 14C16.6865 14 14 16.6865 14 20C14 23.3135 16.6865 26 20 26C23.3135 26 26 23.3135 26 20C26 16.6865 23.3135 14 20 14Z" fill="#4CC88C"/>
</svg>
