<svg width="40" height="40" viewBox="0 0 40 40" fill="none" xmlns="http://www.w3.org/2000/svg">
<path d="M14.3194 20.6953C14.3194 18.9826 14.3079 17.2709 14.3194 15.5593C14.3341 13.778 15.7171 12.4688 17.4754 12.6175C17.9669 12.6643 18.4402 12.8264 18.8564 13.0906C21.4657 14.7815 24.0593 16.4955 26.6372 18.2328C28.4833 19.4755 28.4844 21.9109 26.6372 23.1535C24.0586 24.8867 21.467 26.6042 18.8627 28.3061C17.9019 28.9363 16.8702 28.9873 15.8582 28.4445C14.8463 27.9016 14.3267 26.9886 14.3173 25.8302C14.309 24.1185 14.3194 22.4069 14.3194 20.6953ZM16.8231 20.6724C16.8231 22.3362 16.8147 23.9917 16.8336 25.6513C16.8336 25.8593 16.9381 26.139 17.0865 26.2347C17.2078 26.3106 17.5047 26.2066 17.673 26.0985C20.1631 24.4638 22.6473 22.8208 25.1255 21.1694C25.6482 20.8221 25.6482 20.559 25.1255 20.2117C22.6522 18.5777 20.1774 16.9437 17.7012 15.3097C17.5256 15.1943 17.2068 15.0726 17.0855 15.1527C16.9287 15.2567 16.8367 15.5562 16.8336 15.7766C16.8137 17.4072 16.8231 19.0408 16.8231 20.6724Z" fill="#324EEF"/>
<path d="M4.64447 11.1055C5.62713 11.1055 6.16759 12.084 5.72749 12.997C5.23302 14.0171 4.68837 15.0383 4.35176 16.1156C3.03667 20.2939 3.48409 24.3192 5.58427 28.1699C5.76319 28.48 5.86397 28.8286 5.87802 29.1859C5.87802 29.7256 5.41701 30.1665 4.91104 30.2632C4.35385 30.3672 3.86566 30.1488 3.55204 29.6393C2.73496 28.2805 2.11817 26.8121 1.72053 25.279C0.512768 20.5649 1.10515 16.0862 3.49768 11.8427C3.74962 11.3904 4.10505 11.1107 4.64447 11.1055Z" fill="#98A6F7"/>
<path d="M38.8888 20.9839C38.849 23.9553 38.0493 26.8676 36.5649 29.4465C36.2283 30.0392 35.6429 30.2836 35.0491 30.0964C34.7789 30.012 34.5464 29.8369 34.3916 29.601C34.2367 29.365 34.1691 29.0828 34.2003 28.8028C34.236 28.5736 34.3148 28.3531 34.4324 28.1528C35.7647 25.7873 36.4371 23.1104 36.3799 20.3995C36.3316 17.8998 35.6713 15.4494 34.4564 13.2607C34.2947 12.956 34.2172 12.614 34.2317 12.2697C34.2641 11.7581 34.7136 11.3557 35.1924 11.2725C35.4574 11.216 35.7338 11.2475 35.9792 11.362C36.2246 11.4766 36.4256 11.6679 36.5514 11.9068C37.2971 13.2008 37.8726 14.5848 38.2637 16.0247C38.6976 17.6418 38.908 19.3103 38.8888 20.9839Z" fill="#98A6F7"/>
<path d="M6.89832 20.6597C6.97358 18.5259 7.50464 16.5345 8.57093 14.6877C8.85318 14.201 9.2797 13.9598 9.83584 14.0211C10.0791 14.0407 10.3102 14.1349 10.4974 14.2906C10.6846 14.4462 10.8187 14.6558 10.8812 14.8904C11.0035 15.2825 10.9126 15.6496 10.7087 16.0062C9.91374 17.3975 9.48587 18.9663 9.46503 20.5665C9.44419 22.1666 9.83106 23.7459 10.5896 25.1572C10.724 25.3779 10.8294 25.6148 10.9032 25.8622C10.9657 26.1528 10.9215 26.456 10.7784 26.7169C10.6354 26.9778 10.403 27.1789 10.1236 27.2839C9.84408 27.3888 9.53604 27.3906 9.25537 27.2889C8.9747 27.1872 8.74001 26.9887 8.59393 26.7295C7.89105 25.5607 7.40987 24.2735 7.1743 22.9318C7.04153 22.1811 6.98717 21.4178 6.89832 20.6597Z" fill="#98A6F7"/>
<path d="M33.0891 20.6911C33.0577 22.7241 32.5224 24.7179 31.5304 26.4957C31.2241 27.0458 30.7056 27.3047 30.1714 27.1945C29.3121 27.0156 28.8888 26.1494 29.3059 25.3581C29.7982 24.4222 30.1871 23.4561 30.3732 22.4121C30.7661 20.3318 30.4436 18.1805 29.4574 16.3049C29.333 16.0934 29.2414 15.8645 29.1856 15.6258C29.1346 15.3421 29.1863 15.0496 29.3316 14.8002C29.4768 14.5508 29.7062 14.3606 29.9791 14.2636C30.2645 14.1611 30.5776 14.165 30.8603 14.2746C31.1431 14.3841 31.3763 14.5919 31.5168 14.8594C32.1779 16.0087 32.6295 17.2651 32.8507 18.5708C32.9668 19.2706 33.0117 19.984 33.0891 20.6911Z" fill="#98A6F7"/>
</svg>
