<svg width="64" height="64" viewBox="0 0 64 64" fill="none" xmlns="http://www.w3.org/2000/svg">
<path d="M23.2776 14.4129L13.4536 4.47993C13.2246 4.2508 12.9328 4.09474 12.6151 4.0315C12.2974 3.96826 11.9681 4.00069 11.6688 4.12467C11.3695 4.24866 11.1138 4.45863 10.9339 4.72802C10.7539 4.99741 10.658 5.31411 10.6581 5.63805V10.55H5.63699C5.31314 10.55 4.99658 10.6461 4.72735 10.8261C4.45813 11.0061 4.24832 11.2619 4.12447 11.5611C4.00062 11.8603 3.96828 12.1896 4.03156 12.5072C4.09483 12.8248 4.25087 13.1165 4.47994 13.3454L14.4131 23.2784C14.72 23.5851 15.1362 23.7575 15.5702 23.7576H21.4416L30.7865 33.1011C30.7952 33.1109 30.8083 33.1131 30.8181 33.1229C31.1238 33.4285 31.5384 33.6001 31.9706 33.6C32.4029 33.5999 32.8174 33.4281 33.1229 33.1224C33.4285 32.8167 33.6001 32.4021 33.6 31.9699C33.5999 31.5377 33.4281 31.1232 33.1224 30.8176C33.1136 30.8089 33.1104 30.7958 33.1016 30.786L23.7568 21.4424V15.571C23.7569 15.356 23.7147 15.143 23.6324 14.9443C23.5502 14.7456 23.4297 14.565 23.2776 14.4129Z" fill="#0C7FDA"/>
<path d="M32 4C27.8022 4 23.833 5.06859 20.2586 6.73438L25.2898 11.7656C27.4532 11.0427 29.719 10.6734 32 10.6719C43.76 10.6719 53.3281 20.24 53.3281 32C53.3281 43.76 43.76 53.3281 32 53.3281C20.24 53.3281 10.6719 43.76 10.6719 32C10.6736 29.7194 11.043 27.454 11.7656 25.2909L6.73438 20.2597C5.06859 23.833 4 27.8022 4 32C4 47.3792 16.6208 60 32 60C47.3792 60 60 47.3792 60 32C60 16.6208 47.3792 4 32 4Z" fill="#0C7FDA"/>
<path d="M19.7698 26.9331H17.7353C17.1667 28.5252 16.8008 30.2141 16.8008 31.9998C16.8008 40.3812 23.6194 47.1998 32.0008 47.1998C40.3822 47.1998 47.2008 40.3812 47.2008 31.9998C47.2008 23.6184 40.3822 16.7998 32.0008 16.7998C30.2162 16.7998 28.5273 17.1657 26.9341 17.7332V19.7689L30.8388 23.668C32.5388 23.4352 34.2694 23.7271 35.7991 24.5045C37.3287 25.282 38.5845 26.5079 39.3985 28.0184C40.2125 29.5289 40.5459 31.252 40.3541 32.9571C40.1623 34.6622 39.4545 36.2682 38.3253 37.5601C37.1961 38.852 35.6993 39.7684 34.0352 40.1866C32.371 40.6048 30.6189 40.505 29.013 39.9004C27.4072 39.2958 26.0242 38.2153 25.0491 36.8035C24.074 35.3916 23.5532 33.7157 23.5563 31.9998C23.5681 31.6102 23.6076 31.2219 23.6746 30.8378L19.7698 26.9331Z" fill="#333F49"/>
</svg>
