<svg width="20" height="18" viewBox="0 0 20 18" fill="none" xmlns="http://www.w3.org/2000/svg">
<path fill-rule="evenodd" clip-rule="evenodd" d="M18.75 7.71422H3.91875L8.46 2.10847C8.9025 1.56332 8.83 0.752031 8.3 0.298171C7.76875 -0.156975 6.98125 -0.0824031 6.54 0.462743L0.29 8.17708C0.24125 8.23751 0.21625 8.30822 0.18 8.37508C0.15 8.42908 0.11375 8.47537 0.09125 8.53451C0.035 8.68237 0.00125 8.83794 0.00125 8.9948C0.00125 8.99608 0 8.99866 0 8.99994C0 9.00123 0.00125 9.0038 0.00125 9.00508C0.00125 9.16194 0.035 9.31751 0.09125 9.46537C0.11375 9.52452 0.15 9.5708 0.18 9.6248C0.21625 9.69166 0.24125 9.76237 0.29 9.8228L6.54 17.5371C6.7875 17.8419 7.1425 18 7.5 18C7.7825 18 8.06625 17.9023 8.3 17.7017C8.83 17.2479 8.9025 16.4366 8.46 15.8914L3.91875 10.2857H18.75C19.44 10.2857 20 9.70966 20 8.99994C20 8.29022 19.44 7.71422 18.75 7.71422Z" fill="#324EEF"/>
</svg>
