<svg width="24" height="24" viewBox="0 0 24 24" fill="none" xmlns="http://www.w3.org/2000/svg">
<path fill-rule="evenodd" clip-rule="evenodd" d="M15.6904 13.8615L12.6904 16.7235C12.6454 16.7665 12.5894 16.7875 12.5394 16.8205C12.4854 16.8565 12.4374 16.8995 12.3774 16.9245C12.2564 16.9735 12.1284 17.0005 12.0004 17.0005C11.8694 17.0005 11.7394 16.9735 11.6174 16.9235C11.4954 16.8725 11.3844 16.7995 11.2924 16.7065L8.29337 13.7075C7.90237 13.3165 7.90237 12.6835 8.29337 12.2935C8.68337 11.9025 9.31637 11.9025 9.70737 12.2935L11.0004 13.5865V8.00049C11.0004 7.44749 11.4474 7.00049 12.0004 7.00049C12.5524 7.00049 13.0004 7.44749 13.0004 8.00049V13.6635L14.3094 12.4145C14.7094 12.0335 15.3414 12.0475 15.7234 12.4475C16.1054 12.8475 16.0894 13.4805 15.6904 13.8615ZM12.0004 2.00049C6.48537 2.00049 2.00037 6.48649 2.00037 12.0005C2.00037 17.5145 6.48537 22.0005 12.0004 22.0005C17.5144 22.0005 22.0004 17.5145 22.0004 12.0005C22.0004 6.48649 17.5144 2.00049 12.0004 2.00049Z" fill="#343C44"/>
</svg>
