<svg width="24" height="24" viewBox="0 0 24 24" fill="none" xmlns="http://www.w3.org/2000/svg">
<path fill-rule="evenodd" clip-rule="evenodd" d="M10.1388 15.6905L7.27676 12.6905C7.23376 12.6455 7.21276 12.5895 7.17976 12.5395C7.14376 12.4855 7.10076 12.4375 7.07576 12.3775C7.02676 12.2565 6.99976 12.1285 6.99976 12.0005C6.99976 11.8695 7.02676 11.7395 7.07676 11.6175C7.12776 11.4955 7.20076 11.3845 7.29376 11.2925L10.2928 8.29349C10.6838 7.90249 11.3168 7.90249 11.7068 8.29349C12.0978 8.68349 12.0978 9.31649 11.7068 9.70749L10.4138 11.0005H15.9998C16.5528 11.0005 16.9998 11.4475 16.9998 12.0005C16.9998 12.5525 16.5528 13.0005 15.9998 13.0005H10.3368L11.5858 14.3095C11.9668 14.7095 11.9528 15.3415 11.5528 15.7235C11.1528 16.1055 10.5198 16.0895 10.1388 15.6905ZM21.9998 12.0005C21.9998 6.48549 17.5138 2.00049 11.9998 2.00049C6.48576 2.00049 1.99976 6.48549 1.99976 12.0005C1.99976 17.5145 6.48576 22.0005 11.9998 22.0005C17.5138 22.0005 21.9998 17.5145 21.9998 12.0005Z" fill="#343C44"/>
</svg>
