<svg width="24" height="24" viewBox="0 0 24 24" fill="none" xmlns="http://www.w3.org/2000/svg">
<path fill-rule="evenodd" clip-rule="evenodd" d="M8.30963 10.1385L11.3096 7.27651C11.3546 7.23351 11.4106 7.21251 11.4606 7.17951C11.5146 7.14351 11.5626 7.10051 11.6226 7.07551C11.7436 7.02651 11.8716 6.99951 11.9996 6.99951C12.1306 6.99951 12.2606 7.02651 12.3826 7.07651C12.5046 7.12751 12.6156 7.20051 12.7076 7.29351L15.7066 10.2925C16.0976 10.6835 16.0976 11.3165 15.7066 11.7065C15.3166 12.0975 14.6836 12.0975 14.2926 11.7065L12.9996 10.4135V15.9995C12.9996 16.5525 12.5526 16.9995 11.9996 16.9995C11.4476 16.9995 10.9996 16.5525 10.9996 15.9995V10.3365L9.69063 11.5855C9.29063 11.9665 8.65863 11.9525 8.27663 11.5525C7.89463 11.1525 7.91063 10.5195 8.30963 10.1385ZM11.9996 21.9995C17.5146 21.9995 21.9996 17.5135 21.9996 11.9995C21.9996 6.48551 17.5146 1.99951 11.9996 1.99951C6.48563 1.99951 1.99963 6.48551 1.99963 11.9995C1.99963 17.5135 6.48563 21.9995 11.9996 21.9995Z" fill="#343C44"/>
</svg>
