<svg width="24" height="24" viewBox="0 0 24 24" fill="none" xmlns="http://www.w3.org/2000/svg">
<path fill-rule="evenodd" clip-rule="evenodd" d="M13.8612 8.30951L16.7232 11.3095C16.7662 11.3545 16.7872 11.4105 16.8202 11.4605C16.8562 11.5145 16.8992 11.5625 16.9242 11.6225C16.9732 11.7435 17.0002 11.8715 17.0002 11.9995C17.0002 12.1305 16.9732 12.2605 16.9232 12.3825C16.8722 12.5045 16.7992 12.6155 16.7062 12.7075L13.7072 15.7065C13.3162 16.0975 12.6832 16.0975 12.2932 15.7065C11.9022 15.3165 11.9022 14.6835 12.2932 14.2925L13.5862 12.9995H8.00024C7.44724 12.9995 7.00024 12.5525 7.00024 11.9995C7.00024 11.4475 7.44724 10.9995 8.00024 10.9995H13.6632L12.4142 9.69051C12.0332 9.29051 12.0472 8.65851 12.4472 8.27651C12.8472 7.89451 13.4802 7.91051 13.8612 8.30951ZM2.00024 11.9995C2.00024 17.5145 6.48624 21.9995 12.0002 21.9995C17.5142 21.9995 22.0002 17.5145 22.0002 11.9995C22.0002 6.48551 17.5142 1.99951 12.0002 1.99951C6.48624 1.99951 2.00024 6.48551 2.00024 11.9995Z" fill="#343C44"/>
</svg>
