<svg width="24" height="24" viewBox="0 0 24 24" fill="none" xmlns="http://www.w3.org/2000/svg">
<path fill-rule="evenodd" clip-rule="evenodd" d="M12 10.5001C11.173 10.5001 10.5 11.1731 10.5 12.0001C10.5 12.8271 11.173 13.5001 12 13.5001C12.827 13.5001 13.5 12.8271 13.5 12.0001C13.5 11.1731 12.827 10.5001 12 10.5001ZM12 15.5001C10.07 15.5001 8.5 13.9301 8.5 12.0001C8.5 10.0701 10.07 8.50013 12 8.50013C13.93 8.50013 15.5 10.0701 15.5 12.0001C15.5 13.9301 13.93 15.5001 12 15.5001ZM21.868 11.5021C21.229 10.3901 17.706 4.81613 11.729 5.00313C6.202 5.14413 2.986 10.0141 2.132 11.5021C1.956 11.8111 1.956 12.1891 2.132 12.4981C2.762 13.5951 6.162 19.0001 12.025 19.0001C12.106 19.0001 12.188 18.9991 12.271 18.9971C17.798 18.8561 21.014 13.9861 21.868 12.4981C22.044 12.1891 22.044 11.8111 21.868 11.5021Z" fill="#343C44"/>
</svg>
