<svg width="24" height="24" viewBox="0 0 24 24" fill="none" xmlns="http://www.w3.org/2000/svg">
<path fill-rule="evenodd" clip-rule="evenodd" d="M19.4068 17.9928L20.7068 19.2928C21.0978 19.6838 21.0978 20.3158 20.7068 20.7068C20.5118 20.9018 20.2558 20.9998 19.9998 20.9998C19.7438 20.9998 19.4878 20.9018 19.2928 20.7068L16.5858 17.9998L15.9998 17.4138L14.6548 16.0688L14.5858 15.9998L12.0835 13.4975C12.0558 13.499 12.028 13.4998 12 13.4998C11.173 13.4998 10.5 12.8268 10.5 11.9998C10.5 11.9718 10.5008 11.9439 10.5023 11.9163L7.28276 8.69676L5.53176 6.94576L3.29276 4.70676C2.90176 4.31576 2.90176 3.68376 3.29276 3.29276C3.68376 2.90176 4.31576 2.90176 4.70676 3.29276L6.41976 5.00576L7.88476 6.47076L11.9161 10.5021C11.9439 10.5005 11.9718 10.4998 12 10.4998C12.827 10.4998 13.5 11.1728 13.5 11.9998C13.5 12.0279 13.4992 12.0559 13.4977 12.0837L17.4138 15.9998L19.4068 17.9928ZM8.59295 5.76401L11.39 8.56101C11.589 8.52601 11.791 8.50001 12 8.50001C13.93 8.50001 15.5 10.07 15.5 12C15.5 12.209 15.474 12.411 15.439 12.61L18.121 15.293L18.955 16.127C20.477 14.739 21.453 13.22 21.868 12.497C22.044 12.189 22.044 11.81 21.868 11.502C21.23 10.39 17.706 4.81601 11.73 5.00301C10.546 5.03401 9.47395 5.28901 8.50195 5.67401L8.59295 5.76401ZM13.948 16.7769L15.293 18.1209L15.498 18.3259C14.526 18.7109 13.455 18.9659 12.271 18.9959C12.189 18.9989 12.106 18.9999 12.025 18.9999C6.162 18.9999 2.762 13.5949 2.132 12.4969C1.956 12.1889 1.956 11.8099 2.132 11.5019C2.547 10.7799 3.523 9.26086 5.045 7.87286L6.576 9.40486L8.562 11.3899C8.526 11.5889 8.5 11.7909 8.5 11.9999C8.5 13.9299 10.07 15.4999 12 15.4999C12.209 15.4999 12.411 15.4739 12.61 15.4379L13.879 16.7069L13.948 16.7769Z" fill="#343C44"/>
</svg>
