<svg width="24" height="24" viewBox="0 0 24 24" fill="none" xmlns="http://www.w3.org/2000/svg">
<path fill-rule="evenodd" clip-rule="evenodd" d="M14.6172 19.552C15.6662 18.054 16.7572 15.851 16.9752 13H19.9302C19.5472 16.052 17.4412 18.57 14.6172 19.552ZM4.06885 13H7.06085C7.26685 15.862 8.34385 18.056 9.40685 19.561C6.56985 18.584 4.45385 16.061 4.06885 13ZM9.43785 4.42871C8.38585 5.92671 7.28485 8.13671 7.06485 10.9997H4.06885C4.45485 7.92771 6.58585 5.39671 9.43785 4.42871ZM9.0791 11C9.3851 7.72797 11.0591 5.44997 12.0261 4.39697C13.0261 5.46797 14.6741 7.72497 14.9591 11H9.0791ZM9.08 13H14.962C14.656 16.277 12.978 18.555 12.012 19.608C10.965 18.498 9.359 16.272 9.08 13ZM19.93 11H16.978C16.773 8.151 15.708 5.964 14.65 4.461C17.458 5.451 19.549 7.96 19.93 11ZM22 12C22 6.496 17.529 2.018 12.028 2.002C12.024 2.002 12.02 2.001 12.015 2.001C12.011 2.001 12.005 2 12 2C6.486 2 2 6.487 2 12C2 17.514 6.486 22 12 22C12.006 22 12.011 21.999 12.015 21.999C12.017 21.999 12.018 22 12.02 22C12.023 22 12.026 21.998 12.028 21.998C17.529 21.983 22 17.504 22 12Z" fill="#343C44"/>
</svg>
