<svg width="48" height="48" viewBox="0 0 48 48" fill="none" xmlns="http://www.w3.org/2000/svg">
<path d="M12.1034 25.853L14.711 28.4956C15.2096 29.0004 15.2096 29.0004 14.7023 29.5052C14.1252 30.0895 13.5406 30.6663 12.9759 31.2619C12.789 31.4575 12.6805 31.455 12.4911 31.2619C10.1843 28.9129 7.87085 26.5711 5.55077 24.2364C5.3476 24.032 5.39372 23.9247 5.57072 23.7455C7.88332 21.415 10.1901 19.0786 12.4911 16.7364C12.6967 16.5269 12.8127 16.537 13.0071 16.7364C13.644 17.4027 14.2897 18.0615 14.9516 18.7026C15.171 18.9158 15.1735 19.0395 14.9516 19.2578C13.9943 20.2031 13.0557 21.1672 12.0448 22.192C12.2729 22.2021 12.4188 22.2147 12.5721 22.2147C15.7743 22.2147 17.9752 22.2147 21.1773 22.197C21.5288 22.197 21.651 22.2626 21.6373 22.645C21.6049 23.5436 21.6098 24.4434 21.6373 25.3406C21.6448 25.6662 21.5687 25.7584 21.2334 25.7571C18.0038 25.7458 15.773 25.7571 12.5434 25.7571C12.4122 25.7499 12.2816 25.7351 12.152 25.7129L12.1034 25.853Z" fill="url(#paint0_linear_113_2306)"/>
<path d="M35.3854 22.2109C34.3758 21.1887 33.4484 20.2334 32.4999 19.3008C32.2506 19.061 32.2419 18.9222 32.4999 18.6811C33.1655 18.0501 33.8062 17.3813 34.4468 16.7162C34.6126 16.5433 34.7173 16.5231 34.8993 16.7074C37.2211 19.0707 39.5478 21.4264 41.8795 23.7745C42.0627 23.9601 42.0341 24.0635 41.867 24.2326C39.5486 26.5699 37.2356 28.9125 34.928 31.2607C34.7373 31.4551 34.6288 31.4551 34.4431 31.2607C33.8049 30.5931 33.1593 29.9318 32.4949 29.2907C32.263 29.0674 32.2456 28.9386 32.4874 28.7026C33.345 27.8647 34.1789 27.0015 35.0227 26.1484L35.3194 25.848L35.2882 25.713C35.0626 25.7306 34.837 25.7609 34.6114 25.7622C33.7114 25.7622 32.8102 25.7117 31.9115 25.7256C29.6679 25.7609 28.433 25.742 26.1944 25.7647C25.8628 25.7647 25.7805 25.6802 25.7893 25.3508C25.8105 24.4384 25.8117 23.5234 25.783 22.611C25.7718 22.2677 25.8765 22.2021 26.1944 22.2034C29.4264 22.2198 31.6573 22.2185 34.8893 22.221C35.0227 22.2299 35.1474 22.2236 35.3854 22.2109Z" fill="url(#paint1_linear_113_2306)"/>
<path d="M42.9257 5.40739C43.3789 5.40739 43.8135 5.58968 44.134 5.91415C44.4545 6.23863 44.6346 6.67871 44.6346 7.13758V40.8624C44.6346 41.3213 44.4545 41.7614 44.134 42.0858C43.8135 42.4103 43.3789 42.5926 42.9257 42.5926H5.07435C4.62112 42.5926 4.18645 42.4103 3.86597 42.0858C3.54549 41.7614 3.36545 41.3213 3.36545 40.8624V7.13758C3.36545 6.67871 3.54549 6.23863 3.86597 5.91415C4.18645 5.58968 4.62112 5.40739 5.07435 5.40739H42.9257ZM42.9257 2H5.07435C3.72895 2.00134 2.43904 2.54305 1.4877 3.50624C0.536361 4.46943 0.00131999 5.77542 0 7.13758L0 40.8624C0.00131999 42.2246 0.536361 43.5306 1.4877 44.4938C2.43904 45.457 3.72895 45.9987 5.07435 46H42.9257C44.271 45.9987 45.561 45.457 46.5123 44.4938C47.4636 43.5306 47.9987 42.2246 48 40.8624V7.13758C47.9987 5.77542 47.4636 4.46943 46.5123 3.50624C45.561 2.54305 44.271 2.00134 42.9257 2Z" fill="url(#paint2_linear_113_2306)"/>
<defs>
<linearGradient id="paint0_linear_113_2306" x1="14.0277" y1="16.583" x2="14.0277" y2="31.4077" gradientUnits="userSpaceOnUse">
<stop stop-color="#1A428A"/>
<stop offset="1" stop-color="#48A8F5"/>
</linearGradient>
<linearGradient id="paint1_linear_113_2306" x1="33.3936" y1="16.5776" x2="33.3936" y2="31.4065" gradientUnits="userSpaceOnUse">
<stop stop-color="#0966AF"/>
<stop offset="1" stop-color="#48A8F5"/>
</linearGradient>
<linearGradient id="paint2_linear_113_2306" x1="24" y1="1.13791e-07" x2="24" y2="48" gradientUnits="userSpaceOnUse">
<stop stop-color="#0966AF"/>
<stop offset="1" stop-color="#48A8F5"/>
</linearGradient>
</defs>
</svg>
