<svg width="24" height="24" viewBox="0 0 24 24" fill="none" xmlns="http://www.w3.org/2000/svg">
<path fill-rule="evenodd" clip-rule="evenodd" d="M9.00015 16H7.21015C5.10415 16 3.20415 14.465 3.01715 12.366C2.80415 9.996 4.67315 8 7.00015 8H9.00015C9.55215 8 10.0002 7.553 10.0002 7C10.0002 6.447 9.55215 6 9.00015 6H7.20915C4.16015 6 1.43915 8.187 1.05115 11.211C0.582151 14.869 3.43215 18 7.00015 18H9.00015C9.55215 18 10.0002 17.553 10.0002 17C10.0002 16.447 9.55215 16 9.00015 16ZM8 12C8 12.553 8.448 13 9 13H15C15.552 13 16 12.553 16 12C16 11.447 15.552 11 15 11H9C8.448 11 8 11.447 8 12ZM16.7595 6C19.8265 6 22.5785 8.197 22.9535 11.242C23.4025 14.888 20.5585 18 17.0005 18H15.0005C14.4485 18 14.0005 17.553 14.0005 17C14.0005 16.447 14.4485 16 15.0005 16H17.0005C19.3275 16 21.1965 14.004 20.9835 11.634C20.7965 9.535 18.8965 8 16.7895 8H15.0005C14.4485 8 14.0005 7.553 14.0005 7C14.0005 6.447 14.4435 6 15.2495 6H16.7595Z" fill="#343C44"/>
</svg>
