<svg width="48" height="48" viewBox="0 0 48 48" fill="none" xmlns="http://www.w3.org/2000/svg">
<path d="M42.9257 5.40739C43.3789 5.40739 43.8135 5.58968 44.134 5.91415C44.4545 6.23863 44.6346 6.67871 44.6346 7.13758V40.8624C44.6346 41.3213 44.4545 41.7614 44.134 42.0858C43.8135 42.4103 43.3789 42.5926 42.9257 42.5926H5.07435C4.62112 42.5926 4.18645 42.4103 3.86597 42.0858C3.54549 41.7614 3.36545 41.3213 3.36545 40.8624V7.13758C3.36545 6.67871 3.54549 6.23863 3.86597 5.91415C4.18645 5.58968 4.62112 5.40739 5.07435 5.40739H42.9257ZM42.9257 2H5.07435C3.72895 2.00134 2.43904 2.54305 1.4877 3.50624C0.536361 4.46943 0.00132 5.77542 0 7.13758V40.8624C0.00132 42.2246 0.536361 43.5306 1.4877 44.4938C2.43904 45.457 3.72895 45.9987 5.07435 46H42.9257C44.271 45.9987 45.561 45.457 46.5123 44.4938C47.4636 43.5306 47.9987 42.2246 48 40.8624V7.13758C47.9987 5.77542 47.4636 4.46943 46.5123 3.50624C45.561 2.54305 44.271 2.00134 42.9257 2Z" fill="url(#paint0_linear_132_594)"/>
<path d="M23.3107 37.491C20.6557 37.5217 17.5701 36.8631 14.6482 35.4594C13.6683 34.9887 12.7377 34.4343 11.8604 33.793C11.1041 33.2401 10.9287 32.1539 11.4645 31.4158C12.0854 30.5606 13.1531 30.3667 13.9609 30.9415C16.814 32.9721 19.9821 33.9705 23.4968 33.9503C25.4883 33.9389 27.4401 33.791 29.3324 33.1274C30.6511 32.6649 31.887 32.0425 33.0534 31.2768C33.2278 31.1624 33.395 31.0342 33.5788 30.9376C34.1249 30.6507 34.7109 30.5092 35.225 30.9337C35.774 31.3871 36.1016 31.9856 35.9083 32.741C35.7993 33.167 35.5934 33.5483 35.2283 33.8118C31.845 36.254 28.0905 37.5559 23.3107 37.491Z" fill="url(#paint1_linear_132_594)"/>
<path d="M17.3865 19.4082C17.3865 17.0544 17.3816 14.7005 17.3884 12.3467C17.3924 10.9982 18.4965 10.2073 19.7843 10.6145C20.4144 10.8137 20.7863 11.2442 20.9038 11.8873C20.946 12.1184 20.9584 12.3576 20.9585 12.5931C20.9616 17.1615 20.9603 21.73 20.9619 26.2984C20.962 26.6061 20.9498 26.9116 20.8546 27.2061C20.5913 28.0199 19.7742 28.4812 18.8588 28.3377C17.9717 28.1986 17.3989 27.5569 17.3917 26.6369C17.378 24.896 17.3869 23.1549 17.3865 21.4139C17.3864 20.7453 17.3865 20.0768 17.3865 19.4082Z" fill="url(#paint2_linear_132_594)"/>
<path d="M30.0872 19.4242C30.0874 21.7781 30.0912 24.1319 30.0859 26.4857C30.0828 27.8659 28.9986 28.6703 27.6901 28.2637C27.0824 28.0749 26.7038 27.655 26.5762 27.0294C26.532 26.813 26.5158 26.5875 26.5156 26.3661C26.5123 21.742 26.5123 17.1179 26.5138 12.4938C26.5141 11.453 26.9204 10.8322 27.744 10.5953C29.0056 10.2324 30.0791 11.0138 30.0844 12.3209C30.094 14.6887 30.0871 17.0565 30.0872 19.4242Z" fill="url(#paint3_linear_132_594)"/>
<path d="M12.8122 19.4414C12.8122 20.6241 12.8247 21.807 12.8089 22.9896C12.7909 24.3354 11.677 25.1095 10.3957 24.686C9.71507 24.461 9.28524 23.9067 9.27142 23.1471C9.24965 21.9509 9.26092 20.754 9.2599 19.5573C9.25886 18.3467 9.25179 17.1361 9.26221 15.9256C9.27348 14.6169 10.1879 13.8842 11.4748 14.1361C12.2582 14.2895 12.7849 14.888 12.8004 15.7263C12.8233 16.9643 12.8063 18.203 12.8063 19.4414L12.8122 19.4414Z" fill="url(#paint4_linear_132_594)"/>
<path d="M34.6613 19.4213C34.6613 18.2385 34.6487 17.0556 34.6647 15.873C34.6827 14.5354 35.8103 13.7608 37.0867 14.19C37.7666 14.4186 38.191 14.9708 38.2027 15.7363C38.2233 17.0997 38.2129 18.4635 38.214 19.8271C38.2148 20.8846 38.2263 21.9423 38.2098 22.9996C38.189 24.3273 37.0991 25.0935 35.8272 24.6931C35.1203 24.4705 34.6846 23.9174 34.672 23.1364C34.6522 21.8983 34.6668 20.6597 34.6668 19.4213L34.6613 19.4213Z" fill="url(#paint5_linear_132_594)"/>
<defs>
<linearGradient id="paint0_linear_132_594" x1="24" y1="2" x2="24" y2="46" gradientUnits="userSpaceOnUse">
<stop stop-color="#0966AF"/>
<stop offset="1" stop-color="#48A8F5"/>
</linearGradient>
<linearGradient id="paint1_linear_132_594" x1="23.5593" y1="30.6133" x2="23.5593" y2="37.4934" gradientUnits="userSpaceOnUse">
<stop stop-color="#0966AF"/>
<stop offset="1" stop-color="#48A8F5"/>
</linearGradient>
<linearGradient id="paint2_linear_132_594" x1="19.1729" y1="10.5073" x2="19.1729" y2="28.3637" gradientUnits="userSpaceOnUse">
<stop stop-color="#0966AF"/>
<stop offset="1" stop-color="#48A8F5"/>
</linearGradient>
<linearGradient id="paint3_linear_132_594" x1="28.3012" y1="10.5063" x2="28.3012" y2="28.3693" gradientUnits="userSpaceOnUse">
<stop stop-color="#0966AF"/>
<stop offset="1" stop-color="#48A8F5"/>
</linearGradient>
<linearGradient id="paint4_linear_132_594" x1="11.0367" y1="14.0869" x2="11.0367" y2="24.802" gradientUnits="userSpaceOnUse">
<stop stop-color="#0966AF"/>
<stop offset="1" stop-color="#48A8F5"/>
</linearGradient>
<linearGradient id="paint5_linear_132_594" x1="36.4376" y1="14.0713" x2="36.4376" y2="24.7995" gradientUnits="userSpaceOnUse">
<stop stop-color="#0966AF"/>
<stop offset="1" stop-color="#48A8F5"/>
</linearGradient>
</defs>
</svg>
