<svg width="40" height="40" viewBox="0 0 40 40" fill="none" xmlns="http://www.w3.org/2000/svg">
<g clip-path="url(#clip0_2629_2398)">
<path d="M20.0334 7.00713C25.4194 7.00713 30.8053 7.00713 36.1913 7.00713C37.8011 6.99998 39.0091 7.67014 39.6804 9.14641C39.8813 9.60972 39.9848 10.1094 39.9845 10.6143C40.0036 17.5783 40.0064 24.5427 39.9928 31.5075C39.9928 33.5108 38.4891 35.0229 36.481 35.0956C36.3618 35.0956 36.2425 35.0956 36.1233 35.0956C25.3665 35.0956 14.6097 35.0976 3.85285 35.1016C2.52326 35.1016 1.4405 34.6639 0.654664 33.5776C0.22873 32.9997 -0.000719443 32.3005 1.69465e-06 31.5826C1.69465e-06 24.559 1.69465e-06 17.5354 1.69465e-06 10.5118C0.000830873 9.60544 0.354422 8.73501 0.985885 8.08485C1.61735 7.43469 2.47709 7.05586 3.38302 7.0286C4.74958 6.97971 6.11973 7.00832 7.48867 7.00832C11.6695 7.00276 15.851 7.00236 20.0334 7.00713ZM19.975 33.6766C25.3895 33.6766 30.8049 33.6766 36.2211 33.6766C37.7117 33.6766 38.5714 32.8085 38.5714 31.3191C38.5714 24.4743 38.5714 17.6296 38.5714 10.7849C38.5714 9.31574 37.7152 8.43928 36.2533 8.43928C25.4233 8.43928 14.593 8.43928 3.76222 8.43928C2.29192 8.43809 1.43096 9.31097 1.43096 10.7729C1.43096 17.6336 1.43096 24.4934 1.43096 31.3525C1.42513 31.5456 1.43791 31.7389 1.46912 31.9296C1.68615 33.0291 2.53279 33.6742 3.77057 33.6754C9.17005 33.6778 14.5703 33.6782 19.9714 33.6766H19.975Z" fill="#FF9843"/>
<path d="M31.3868 21.0613C31.3356 27.2931 26.9342 32.3778 19.9153 32.4768C13.6633 32.565 8.5452 27.3277 8.5607 21.0291C8.57621 14.7305 13.6883 9.53853 19.9249 9.63512C26.9735 9.74244 31.3427 14.8533 31.3868 21.0613ZM30.0095 21.0613C30.0095 15.5617 25.5569 10.9969 20.0954 11.0589C14.0293 11.1281 10.0477 15.4841 10.0406 21.0446C10.0334 26.5168 13.9316 30.9647 20.0799 31.0482C25.533 31.1245 30.0048 26.5562 30.0095 21.0708V21.0613Z" fill="#FF9843"/>
<path opacity="0.5" d="M33.1027 21.0902C33.1027 19.7785 33.0706 18.4667 33.1123 17.1634C33.1433 16.1987 33.8146 15.4248 34.7364 15.1445C35.0865 15.0387 35.4567 15.0173 35.8166 15.0819C36.1766 15.1465 36.5162 15.2954 36.8076 15.5163C37.099 15.7373 37.334 16.024 37.4934 16.3532C37.6528 16.6824 37.7321 17.0446 37.7247 17.4102C37.7247 19.85 37.739 22.2898 37.7247 24.7296C37.7152 26.0723 36.7231 27.0751 35.4412 27.1002C34.1593 27.1252 33.129 26.114 33.0968 24.7474C33.0694 23.5276 33.0968 22.3077 33.0968 21.0878L33.1027 21.0902ZM36.2985 21.0806C36.2985 19.9502 36.2985 18.8193 36.2985 17.6881C36.3026 17.5242 36.2934 17.3603 36.2711 17.198C36.2372 16.9913 36.1303 16.8035 35.9699 16.6688C35.8094 16.5341 35.6061 16.4613 35.3966 16.4636C35.1871 16.466 34.9854 16.5432 34.828 16.6814C34.6706 16.8196 34.5679 17.0096 34.5385 17.217C34.5186 17.3796 34.5106 17.5434 34.5146 17.7071C34.5146 19.9394 34.5146 22.1717 34.5146 24.404C34.51 24.5822 34.5204 24.7606 34.5456 24.937C34.5838 25.1348 34.6889 25.3134 34.8433 25.4428C34.9977 25.5722 35.192 25.6444 35.3934 25.6473C35.5948 25.6503 35.7911 25.5838 35.9492 25.4589C36.1074 25.3341 36.2177 25.1587 36.2616 24.9621C36.2902 24.8012 36.3022 24.6377 36.2974 24.4744C36.2997 23.3427 36.2985 22.2123 36.2985 21.0806Z" fill="#FF9843"/>
<path opacity="0.5" d="M6.90911 21.0329C6.90911 22.2826 6.93058 23.537 6.90196 24.782C6.90479 25.2548 6.7596 25.7167 6.48674 26.1029C6.21388 26.4891 5.82702 26.7803 5.38038 26.9356C4.94369 27.0912 4.47041 27.1125 4.02152 26.9966C3.57264 26.8808 3.16874 26.6332 2.86189 26.2857C2.4923 25.8884 2.28619 25.3663 2.28474 24.8237C2.27639 22.31 2.25851 19.7951 2.28474 17.2814C2.29905 16.0519 3.1779 15.1624 4.39421 15.024C5.46743 14.9048 6.52753 15.6298 6.81729 16.7138C6.88536 17.0028 6.91661 17.2993 6.91031 17.5962C6.91985 18.7421 6.91031 19.8881 6.91031 21.0329H6.90911ZM5.48531 21.0591C5.48531 20.2864 5.48531 19.5089 5.48531 18.7421C5.48531 18.252 5.49843 17.7607 5.46504 17.273C5.45637 17.0547 5.36301 16.8482 5.20474 16.6975C5.04647 16.5468 4.83573 16.4637 4.6172 16.4657C4.39183 16.4555 4.17138 16.5337 4.00278 16.6836C3.83417 16.8335 3.73074 17.0432 3.7145 17.2683C3.70227 17.3871 3.69789 17.5066 3.70139 17.626C3.70139 19.9131 3.70139 22.2003 3.70139 24.4874C3.69627 24.6652 3.71228 24.8429 3.74909 25.0169C3.8027 25.2031 3.91644 25.3664 4.07258 25.4812C4.22872 25.596 4.41847 25.6559 4.61223 25.6515C4.80598 25.6472 4.99285 25.5788 5.14367 25.4571C5.29449 25.3354 5.40078 25.1672 5.44596 24.9787C5.47562 24.8031 5.48801 24.6249 5.48293 24.4469C5.48531 23.3164 5.48531 22.1872 5.48531 21.0591Z" fill="#FF9843"/>
<path opacity="0.5" d="M19.9869 14.8463C23.6776 14.9309 26.2509 17.6319 26.1603 21.3237C26.0768 24.7127 23.2757 27.3516 19.8533 27.2658C16.431 27.1799 13.699 24.324 13.7897 20.9457C13.8815 17.5388 16.6945 14.7699 19.9869 14.8463ZM19.9869 16.2772C17.1488 16.3512 15.198 18.4237 15.2683 21.2856C15.2839 21.9011 15.421 22.5075 15.6718 23.0698C15.9226 23.6321 16.282 24.1393 16.7295 24.5622C17.177 24.9851 17.7037 25.3154 18.2793 25.534C18.8549 25.7526 19.4681 25.8552 20.0835 25.836C22.7188 25.7835 24.8533 23.5799 24.7806 20.9886C24.7007 18.3414 22.5376 16.2116 19.9833 16.2772H19.9869Z" fill="#FF9843"/>
</g>
<defs>
<clipPath id="clip0_2629_2398">
<rect width="40" height="40" fill="white"/>
</clipPath>
</defs>
</svg>
