<svg width="73" height="64" viewBox="0 0 73 64" fill="none" xmlns="http://www.w3.org/2000/svg">
<path d="M8.11133 14.3345C8.31674 14.2041 8.26018 13.9687 8.30632 13.7859C9.06249 10.4526 11.8177 7.80717 15.1163 7.2661C18.6381 6.68756 22.02 8.24182 23.7794 11.3279C24.7797 13.0844 26.2801 13.8533 28.2196 13.8758C29.3703 13.8923 30.5224 13.8938 31.6715 13.8758C33.6066 13.8458 35.1129 13.0755 36.1102 11.3159C37.7476 8.43516 41.0819 6.73552 44.1705 7.18217C47.8248 7.71124 50.2839 9.74062 51.3362 13.3273C52.5137 17.3366 50.4536 21.6111 46.634 23.2988C42.8443 24.9729 38.2984 23.5686 36.204 19.9565C35.0936 18.0425 33.5158 17.2062 31.3946 17.2586C29.988 17.2916 28.5665 17.1237 27.1732 17.359C26.482 17.459 25.8234 17.7194 25.2494 18.1197C24.6754 18.52 24.2017 19.0493 23.8657 19.6657C22.0245 22.8686 18.7959 24.4199 15.1728 23.8803C11.843 23.3827 9.09226 20.7328 8.27804 17.2451C8.24381 17.0952 8.31228 16.8944 8.11133 16.806V14.3345ZM44.9431 15.6129C44.9431 15.0554 45.1619 14.294 44.8865 13.9927C44.5665 13.642 43.8073 13.9013 43.2387 13.8893C42.7222 13.8788 42.0241 13.7065 41.7398 13.9717C41.4094 14.2715 41.652 14.9909 41.6416 15.5275C41.6311 16.0641 41.4451 16.8434 41.7264 17.1477C42.0494 17.4969 42.8071 17.2391 43.3757 17.2511C43.8907 17.2616 44.5903 17.4325 44.8746 17.1687C45.2051 16.8584 44.9356 16.148 44.9431 15.6129Z" fill="#0C7FDA"/>
<path d="M8.11133 47.2216C8.31674 47.0927 8.26018 46.8574 8.30632 46.6746C9.06249 43.3397 11.8177 40.6958 15.1163 40.1548C18.6381 39.5762 22.02 41.1305 23.7794 44.2165C24.7797 45.9731 26.2801 46.742 28.2196 46.7645C29.3708 46.7825 30.5214 46.7825 31.6715 46.7645C33.6066 46.7345 35.1129 45.9641 36.1102 44.203C37.7476 41.3238 41.0819 39.6242 44.1705 40.0708C47.8248 40.5984 50.2839 42.6293 51.3362 46.2159C52.5137 50.2252 50.4536 54.4998 46.634 56.1875C42.8443 57.8616 38.2984 56.4572 36.204 52.8451C35.0936 50.9312 33.5158 50.0948 31.3946 50.1473C29.988 50.1803 28.5665 50.0109 27.1732 50.2462C26.482 50.3467 25.8235 50.6076 25.2495 51.0081C24.6756 51.4087 24.2019 51.938 23.8657 52.5544C22.0245 55.7543 18.7959 57.3086 15.1728 56.7675C11.843 56.2714 9.09226 53.62 8.27804 50.1338C8.24381 49.9839 8.31228 49.7831 8.11133 49.6946V47.2216ZM41.6609 48.4102C41.6609 48.9692 41.4436 49.7216 41.719 50.0364C42.0345 50.3961 42.7952 50.1308 43.3563 50.1458C43.8728 50.1608 44.565 50.3361 44.8627 50.0738C45.2051 49.7741 44.952 49.0562 44.9669 48.5211C44.9818 47.986 45.1693 47.2111 44.891 46.8964C44.571 46.5352 43.8118 46.8005 43.2447 46.7855C42.7282 46.7705 42.036 46.5966 41.7398 46.8574C41.4034 47.1542 41.6847 47.8691 41.6609 48.4102Z" fill="#333F49"/>
<path d="M21.4461 32.0798C21.4287 30.3192 22.0209 28.6023 23.131 27.1953C24.2411 25.7883 25.807 24.7698 27.586 24.2979C29.3416 23.8229 31.2131 23.918 32.9058 24.5684C34.5985 25.2187 36.0164 26.3872 36.9364 27.8901C38.0021 29.6415 39.556 30.4221 41.6116 30.3909C43.039 30.3696 44.4724 30.5172 45.8908 30.3029C46.592 30.2121 47.261 29.9657 47.844 29.5833C48.4269 29.201 48.9076 28.6934 49.2473 28.1016C51.081 25.0771 54.3363 23.601 57.9457 24.1276C61.2873 24.6115 64.0632 27.1535 64.8223 30.4235C65.8241 34.7396 62.4885 39.2699 57.8669 39.8703C54.2306 40.3429 51.0676 38.8881 49.2339 35.8651C48.4822 34.6274 47.3763 33.8781 45.9221 33.6964C44.1345 33.4897 42.3276 33.483 40.5384 33.6765C38.9726 33.8326 37.8175 34.653 37.0197 35.9829C35.369 38.7391 32.0245 40.3614 28.9241 39.9313C25.2447 39.419 22.8393 37.4575 21.7379 34.0555C21.6584 33.7826 21.5968 33.5053 21.5533 33.2252C21.4752 32.8481 21.4393 32.4642 21.4461 32.0798ZM28.1293 31.9521C28.1293 32.3779 28.1426 32.8037 28.1293 33.2294C28.1173 33.4934 28.1813 33.5985 28.4895 33.5914C29.3602 33.5701 30.2324 33.5743 31.1046 33.5914C31.3815 33.5914 31.4916 33.5417 31.4827 33.2465C31.4604 32.4148 31.4663 31.5802 31.4827 30.7471C31.4827 30.4831 31.4306 30.3781 31.1225 30.3866C30.2503 30.4079 29.3781 30.4022 28.5073 30.3866C28.2305 30.3866 28.1084 30.4349 28.1293 30.7315C28.1501 31.1346 28.1293 31.5448 28.1293 31.9521Z" fill="#333F49"/>
</svg>
