<svg width="61" height="64" viewBox="0 0 61 64" fill="none" xmlns="http://www.w3.org/2000/svg">
<g clip-path="url(#clip0_4224_3247)">
<path d="M14.1672 38.7875C13.877 38.5157 13.5357 38.304 13.1632 38.1648C12.7906 38.0256 12.3942 37.9617 11.9968 37.9766C11.5993 37.9915 11.2088 38.0851 10.8478 38.2518C10.4867 38.4185 10.1623 38.6552 9.89322 38.9481C9.59208 39.2043 9.34437 39.5173 9.16425 39.8693C8.98412 40.2212 8.8751 40.6052 8.84342 40.9993C8.81175 41.3935 8.85803 41.79 8.97962 42.1662C9.10122 42.5424 9.29575 42.891 9.5521 43.192C10.8463 44.7471 12.0302 46.3122 12.9131 47.3857C13.0647 47.5224 13.1873 47.6881 13.2737 47.8731C13.36 48.058 13.4084 48.2584 13.4158 48.4624C13.4233 48.6663 13.3898 48.8697 13.3172 49.0605C13.2447 49.2512 13.1345 49.4255 12.9934 49.5729C12.7095 49.7861 12.3536 49.8801 12.0014 49.8352C11.6493 49.7902 11.3285 49.6098 11.1072 49.3321C10.6557 48.8004 6.09075 43.4328 6.09075 42.3893V38.9681C6.36861 38.6938 6.57999 38.3594 6.70868 37.9908C6.83737 37.6221 6.87996 37.2288 6.83318 36.8411L4.71624 25.6243C4.63737 25.1205 4.40056 24.6547 4.03994 24.2941C3.67932 23.9334 3.21351 23.6966 2.70965 23.6178C2.38389 23.5778 2.05336 23.6078 1.74011 23.7057C1.42686 23.8036 1.1381 23.9673 0.893113 24.1857C0.648127 24.4041 0.452547 24.6722 0.319428 24.9722C0.18631 25.2722 0.118715 25.5971 0.121158 25.9253L0.171322 44.0347C0.180947 44.8657 0.40192 45.6805 0.813429 46.4025L10.9065 64.0003H23.0263V49.9542C23.0493 48.541 22.516 47.1754 21.5414 46.1517L14.1672 38.7875Z" fill="#333F49"/>
<path d="M51.6301 23.8885C51.4679 24.2117 51.2332 24.493 50.9443 24.7106C50.6554 24.9281 50.3201 25.076 49.9647 25.1426C49.4229 25.2731 48.8912 25.5239 48.3393 25.6443C47.8063 25.7392 47.3107 25.9826 46.9097 26.3464C46.5086 26.7102 46.2182 27.1797 46.0719 27.701C45.8961 28.0801 45.8144 28.496 45.8336 28.9135C45.8528 29.3309 45.9724 29.7375 46.1823 30.0989C46.6237 30.8514 46.9849 31.654 47.3862 32.4366C47.5644 32.7428 47.6327 33.1006 47.5798 33.4509C47.5269 33.8012 47.3559 34.123 47.0953 34.3629C46.0017 35.4765 44.9081 36.5701 43.7944 37.6637C43.551 37.9196 43.2282 38.0856 42.8785 38.1348C42.5287 38.1839 42.1727 38.1134 41.8681 37.9346C40.9852 37.5032 40.1224 37.0417 39.2395 36.6103C38.5219 36.3454 37.732 36.3534 37.0199 36.6327C36.3077 36.912 35.723 37.4431 35.3768 38.1252C35.0658 39.0282 34.7949 39.9412 34.4939 40.8441C34.4183 41.2376 34.1983 41.5885 33.8771 41.8279C33.556 42.0674 33.1569 42.1782 32.7582 42.1384H28.4039C27.9842 42.1929 27.5598 42.0805 27.222 41.8254C26.8843 41.5702 26.6602 41.1926 26.598 40.7739C26.3071 39.891 26.0362 39.0081 25.7251 38.1252C25.3837 37.4496 24.811 36.9189 24.1113 36.6298C23.4116 36.3408 22.6314 36.3125 21.9126 36.5501C21.0799 36.9614 20.2572 37.4029 19.4345 37.8242C19.0833 38.0587 18.6573 38.1536 18.2398 38.0905C17.8223 38.0275 17.4433 37.8109 17.1771 37.4831C16.1604 36.4932 15.1571 35.4899 14.1672 34.4732C13.8323 34.2163 13.6105 33.8392 13.5487 33.4216C13.4869 33.004 13.59 32.5788 13.8361 32.2359C14.2475 31.4032 14.6889 30.5805 15.0903 29.7477C15.3451 29.0221 15.3221 28.2278 15.0257 27.5181C14.7292 26.8085 14.1803 26.2338 13.485 25.9051C12.582 25.5941 11.669 25.3132 10.7661 25.0022C10.379 24.9222 10.0354 24.7014 9.80188 24.3826C9.56832 24.0638 9.46143 23.6696 9.50192 23.2765C9.50192 21.8217 9.50192 20.377 9.50192 18.9222C9.45717 18.5163 9.56787 18.1084 9.81173 17.7808C10.0556 17.4532 10.4145 17.2301 10.8162 17.1564C11.6891 16.8554 12.582 16.5845 13.4649 16.2836C14.1744 15.954 14.7342 15.3699 15.0333 14.647C15.3325 13.9242 15.3492 13.1153 15.0802 12.3808C14.6588 11.5179 14.2174 10.6752 13.7759 9.82236C13.5916 9.50169 13.523 9.12748 13.5814 8.76226C13.6398 8.39704 13.8218 8.06294 14.097 7.81578L17.2774 4.57514C17.5239 4.29827 17.8597 4.11654 18.2263 4.06155C18.5929 4.00656 18.9671 4.08179 19.284 4.27415C20.1669 4.7156 21.0297 5.16708 21.9126 5.5985C22.6362 5.85024 23.4269 5.82793 24.135 5.53578C24.8432 5.24364 25.4197 4.70195 25.7552 4.0133C26.0562 3.14043 26.3171 2.2475 26.608 1.36461C26.6703 0.953678 26.8886 0.582561 27.2174 0.328431C27.5463 0.0743017 27.9605 -0.0432827 28.3738 0.000129914C29.8286 0.000129914 31.2734 0.000129914 32.7281 0.000129914C33.1349 -0.0425142 33.5428 0.0687835 33.8715 0.312076C34.2003 0.555369 34.4259 0.912998 34.504 1.31444C34.815 2.21741 35.0758 3.1304 35.3969 4.03336C35.7377 4.71947 36.3169 5.25787 37.026 5.5478C37.7352 5.83773 38.5256 5.85932 39.2495 5.60853C40.0823 5.20722 40.905 4.75573 41.7377 4.34438C42.0814 4.10071 42.506 3.99912 42.9228 4.0608C43.3396 4.12249 43.7166 4.34268 43.975 4.67547C44.9783 5.67876 45.9816 6.68205 46.9849 7.68535C47.3143 7.94985 47.5285 8.33154 47.5827 8.75047C47.637 9.1694 47.527 9.59306 47.2759 9.93272C46.8645 10.7655 46.4231 11.5882 46.0217 12.4209C45.7694 13.1493 45.7946 13.9452 46.0927 14.6561C46.3908 15.367 46.9407 15.9429 47.637 16.2735C48.4196 16.5344 49.1921 16.8253 49.9948 17.026C50.3419 17.1014 50.6674 17.2543 50.9471 17.4732C51.2268 17.6921 51.4534 17.9714 51.6101 18.2901L51.6301 23.8885ZM38.0857 21.0693C38.0877 19.5795 37.648 18.1225 36.8221 16.8826C35.9963 15.6426 34.8214 14.6753 33.446 14.1029C32.0705 13.5305 30.5563 13.3787 29.0946 13.6666C27.6329 13.9546 26.2893 14.6694 25.2338 15.7208C24.1782 16.7721 23.458 18.1128 23.1642 19.5733C22.8704 21.0339 23.0162 22.5487 23.5831 23.9264C24.15 25.3042 25.1126 26.4829 26.3493 27.3137C27.5859 28.1445 29.0411 28.59 30.5309 28.594C31.5212 28.5966 32.5024 28.404 33.4182 28.0271C34.334 27.6503 35.1665 27.0966 35.8682 26.3977C36.5699 25.6989 37.1269 24.8685 37.5074 23.9542C37.8879 23.0399 38.0844 22.0596 38.0857 21.0693Z" fill="#0C7FDA"/>
<path d="M46.9956 38.7871C47.6011 38.2823 48.3713 38.0178 49.1592 38.0443C49.9471 38.0707 50.6978 38.3861 51.2681 38.9304C51.8384 39.4747 52.1886 40.2098 52.2518 40.9957C52.3149 41.7815 52.0868 42.5631 51.6108 43.1916C50.2864 44.7467 49.1326 46.3118 48.2798 47.3853C48.1283 47.522 48.0057 47.6877 47.9193 47.8726C47.833 48.0576 47.7846 48.258 47.7771 48.4619C47.7696 48.6659 47.8032 48.8693 47.8757 49.06C47.9483 49.2508 48.0584 49.4251 48.1996 49.5725C48.4835 49.7856 48.8393 49.8797 49.1915 49.8348C49.5437 49.7898 49.8645 49.6093 50.0858 49.3317C50.5372 48.8 55.1022 43.4323 55.1022 42.3889V38.9677C54.8135 38.699 54.5909 38.3672 54.4517 37.9983C54.3124 37.6293 54.2604 37.2331 54.2996 36.8407L56.4065 25.6239C56.4854 25.1201 56.7222 24.6542 57.0828 24.2936C57.4434 23.933 57.9092 23.6962 58.4131 23.6173C58.7364 23.5805 59.0639 23.6126 59.374 23.7113C59.6841 23.81 59.9699 23.9733 60.2124 24.1902C60.455 24.4072 60.6489 24.673 60.7815 24.9703C60.914 25.2675 60.9822 25.5894 60.9815 25.9149V44.0243C60.9675 44.8604 60.7395 45.679 60.3193 46.4021L50.2162 63.9998H38.0964V49.9537C38.0734 48.5406 38.6067 47.1749 39.5813 46.1513L46.9956 38.7871Z" fill="#333F49"/>
</g>
<defs>
<clipPath id="clip0_4224_3247">
<rect width="60.8798" height="64" fill="white" transform="translate(0.121094)"/>
</clipPath>
</defs>
</svg>
