<svg width="59" height="64" viewBox="0 0 59 64" fill="none" xmlns="http://www.w3.org/2000/svg">
<g clip-path="url(#clip0_4242_3284)">
<path d="M29.8795 0.0833013C30.762 2.23619 31.7432 4.56626 32.6124 6.72584C32.7612 7.09691 32.9467 7.20555 33.3345 7.244C35.3921 7.45294 37.4464 7.68862 39.509 7.92263C39.5619 7.9291 39.6118 7.95087 39.6526 7.98527C39.6933 8.01967 39.7231 8.0652 39.7384 8.11629C39.7536 8.16738 39.7537 8.22181 39.7385 8.27292C39.7232 8.32402 39.6935 8.36958 39.6528 8.40402C38.1183 9.81643 36.5839 11.2255 35.0344 12.6212C34.9127 12.7111 34.8219 12.8366 34.7746 12.9803C34.7273 13.124 34.7258 13.2789 34.7703 13.4235C35.1898 15.3558 35.5776 17.2964 35.9755 19.2337C36.0056 19.356 36.029 19.4799 36.0457 19.6047C36.0509 19.6569 36.0411 19.7095 36.0174 19.7563C35.9937 19.8031 35.957 19.8421 35.9118 19.8686C35.8666 19.8952 35.8147 19.9083 35.7622 19.9062C35.7098 19.9042 35.6591 19.8871 35.6161 19.8571C35.5661 19.8199 35.5142 19.7853 35.4606 19.7535C33.7239 18.769 31.9873 17.7861 30.2639 16.7816C30.1245 16.6825 29.9577 16.6293 29.7867 16.6293C29.6157 16.6293 29.4489 16.6825 29.3095 16.7816C27.5411 17.8162 25.7559 18.8241 23.9173 19.8722C23.8716 19.8978 23.8195 19.9097 23.7672 19.9066C23.7149 19.9036 23.6646 19.8856 23.6223 19.8548C23.5799 19.824 23.5472 19.7818 23.5281 19.733C23.509 19.6842 23.5042 19.631 23.5144 19.5797C23.9189 17.5922 24.2984 15.6633 24.7263 13.7461C24.8566 13.1661 24.7547 12.8118 24.3 12.4089C22.8341 11.1202 21.4067 9.78802 19.904 8.40736C19.8657 8.37178 19.8383 8.32599 19.8252 8.27538C19.8121 8.22477 19.8137 8.17146 19.8298 8.12174C19.846 8.07202 19.876 8.02795 19.9164 7.99475C19.9568 7.96154 20.0059 7.94058 20.0578 7.93433C21.41 7.78055 22.6954 7.63179 23.9808 7.48804C24.7881 7.39611 25.5938 7.29916 26.4028 7.22896C26.5059 7.22987 26.6067 7.19799 26.6905 7.13789C26.7743 7.0778 26.8369 6.99262 26.8691 6.89466C27.8085 4.61139 28.7278 2.35988 29.6706 0.0732723C29.6781 0.0508042 29.6927 0.0314024 29.7122 0.0180213C29.7318 0.00464011 29.7552 -0.00198721 29.7788 -0.000851563C29.8025 0.000284087 29.8251 0.00912049 29.8433 0.0243121C29.8615 0.0395037 29.8742 0.0602182 29.8795 0.0833013Z" fill="#0C7FDA"/>
<path d="M27.6416 63.9995C27.6065 63.8457 27.4544 63.8508 27.3541 63.7956C26.2977 63.2039 25.925 62.104 26.4699 61.0326C27.0727 59.8503 27.6984 58.6803 28.347 57.5225C28.4712 57.2877 28.641 57.08 28.8466 56.9117C29.0521 56.7434 29.2891 56.6178 29.5438 56.5423C29.7985 56.4668 30.0657 56.4429 30.3298 56.472C30.5938 56.5011 30.8494 56.5826 31.0815 56.7118C31.5394 56.9701 31.8788 57.3966 32.0276 57.9008C32.1764 58.405 32.1231 58.9474 31.8789 59.4129C31.2788 60.5964 30.6319 61.753 30.0118 62.9314C29.7126 63.4964 29.2061 63.7822 28.6428 64.0029L27.6416 63.9995Z" fill="#333F49"/>
<path d="M11.1758 46.0461C11.0571 45.5982 10.9718 45.2104 10.8415 44.836C10.6929 44.3375 10.433 43.8793 10.0815 43.496C9.72997 43.1126 9.29599 42.8141 8.81227 42.6229C6.93852 41.8323 5.08985 40.9765 3.22446 40.1625C2.89016 40.0187 2.80324 39.8984 2.98042 39.5256C5.02856 35.2009 7.05999 30.8689 9.0747 26.5297C9.24185 26.157 9.39563 26.1603 9.71823 26.3124C11.4449 27.1298 13.2284 27.8535 14.8999 28.7511C16.8037 29.7674 18.7343 29.8376 20.7685 29.3495C22.0806 29.0336 23.3894 28.6809 24.7517 28.6174C25.8932 28.5516 27.0333 28.768 28.0713 29.2476C26.4516 30.7686 24.9289 32.3315 23.1771 33.6436C21.7748 34.6886 20.3168 35.6567 18.8095 36.5437C17.8751 37.0986 17.7631 37.6753 18.4184 38.5294C19.8074 40.3413 21.4956 41.6936 23.834 42.0178C25.5055 42.2502 27.1169 41.9259 28.6814 41.376C30.3529 40.7893 31.9826 40.124 33.6357 39.5089C34.3175 39.2505 35.032 39.0879 35.7585 39.0258C36.5701 38.9409 37.3881 39.1109 38.0986 39.5122C41.5842 41.5024 45.0699 43.4921 48.5555 45.4812C49.6837 46.128 50.0598 47.3482 49.4698 48.3495C48.8948 49.3256 47.6746 49.5997 46.5831 48.9863C44.243 47.6714 41.9068 46.3526 39.5745 45.0299C39.4308 44.948 39.2887 44.8627 39.1399 44.7875C38.5516 44.5067 37.9699 44.6605 37.6673 45.1669C37.3648 45.6734 37.5136 46.3269 38.1019 46.6713C39.4308 47.4469 40.7763 48.1957 42.1135 48.9545C42.8925 49.3941 43.6747 49.8271 44.4536 50.2734C45.6387 50.9553 46.0282 52.122 45.4281 53.165C44.828 54.2081 43.6613 54.4454 42.4963 53.7952C39.8843 52.3287 37.2729 50.8628 34.662 49.3975C34.3728 49.2303 34.082 49.0515 33.7276 49.115C33.5075 49.1417 33.3013 49.2367 33.1379 49.3866C32.9745 49.5365 32.8622 49.7338 32.8167 49.9508C32.7555 50.176 32.7739 50.4155 32.869 50.6287C32.964 50.8419 33.1297 51.0157 33.3382 51.1208C34.0352 51.5337 34.7456 51.9265 35.4509 52.326C36.9553 53.1751 38.4596 53.9975 39.964 54.875C40.3693 55.1027 40.6829 55.4641 40.8512 55.8974C41.0195 56.3307 41.0321 56.809 40.8868 57.2506C40.7416 57.6921 40.4474 58.0695 40.0547 58.3182C39.662 58.567 39.1951 58.6716 38.7338 58.6141C38.424 58.5722 38.1263 58.4663 37.8596 58.3032C36.4405 57.5176 35.018 56.737 33.6056 55.9431C33.411 55.8242 33.2319 55.6816 33.0724 55.5185C31.9625 54.4571 30.6504 54.0844 29.1644 54.4254C28.775 54.5139 28.6764 54.3969 28.5527 54.0777C27.7671 52.0719 25.8398 51.0289 23.7287 51.4986C23.3627 51.5805 23.254 51.5287 23.1203 51.1776C22.425 49.339 20.7802 48.3261 18.7945 48.4849C18.4317 48.5149 18.3281 48.4631 18.2395 48.0803C17.5074 44.9246 13.8936 43.7528 11.4181 45.8506C11.3496 45.9024 11.2878 45.9542 11.1758 46.0461Z" fill="#333F49"/>
<path d="M35.7592 28.213C37.0964 28.228 38.345 28.6275 39.5736 29.1005C40.8021 29.5736 42.019 30.1502 43.3295 30.4377C44.6223 30.732 45.9785 30.531 47.1304 29.8744C48.3289 29.2058 49.5541 28.5857 50.7492 27.9138C51.1253 27.7015 51.2507 27.7784 51.3994 28.1645C53.1378 32.6898 54.8879 37.2106 56.6496 41.727C56.8017 42.1115 56.7315 42.2535 56.3638 42.4056C54.6923 43.0976 53.0342 43.8114 51.376 44.5318C51.0969 44.6538 50.898 44.6806 50.6824 44.4165C50.3481 44.0053 49.8867 43.7479 49.4338 43.4938C46.2195 41.6551 42.9684 39.88 39.8026 37.9611C37.6296 36.644 35.4567 36.6323 33.155 37.3928C31.2412 38.0263 29.4259 38.9239 27.492 39.5023C26.1381 39.9084 24.7758 40.1391 23.3784 39.7062C22.465 39.4044 21.6389 38.8846 20.9715 38.1918C20.786 38.0113 20.7275 37.901 21.0049 37.7372C24.0755 35.9186 26.7047 33.5584 29.2905 31.118C30.7431 29.7507 32.443 28.7261 34.4571 28.3651C34.8867 28.2798 35.3297 28.2598 35.7592 28.213Z" fill="#333F49"/>
<path d="M13.186 22.0838C13.1962 22.1352 13.1914 22.1884 13.1723 22.2372C13.1532 22.2859 13.1205 22.3282 13.0782 22.359C13.0358 22.3897 12.9855 22.4077 12.9332 22.4108C12.8809 22.4139 12.8288 22.4019 12.7832 22.3763C11.4058 21.5974 10.0904 20.8603 8.78994 20.0964C8.65237 19.994 8.48586 19.9378 8.31436 19.936C8.14286 19.9342 7.97521 19.9869 7.83552 20.0864C6.54679 20.8486 5.23801 21.5807 3.83395 22.3763C3.78847 22.4025 3.7364 22.415 3.684 22.4123C3.63159 22.4096 3.58108 22.3918 3.53854 22.3611C3.49599 22.3304 3.46322 22.288 3.44417 22.2391C3.42511 22.1902 3.42058 22.1369 3.43112 22.0855C3.56651 21.3968 3.68853 20.7734 3.81557 20.1516C3.99442 19.274 4.16992 18.3948 4.3705 17.524C4.41561 17.3671 4.41124 17.2001 4.358 17.0457C4.30476 16.8914 4.20523 16.7572 4.07298 16.6615C2.94304 15.6586 1.82815 14.6289 0.649747 13.5525C0.610912 13.517 0.583109 13.4711 0.569658 13.4202C0.556207 13.3694 0.557676 13.3157 0.573889 13.2657C0.590102 13.2156 0.620374 13.1713 0.661093 13.138C0.701812 13.1047 0.751256 13.0838 0.803525 13.0778C2.2945 12.9106 3.70525 12.7435 5.12101 12.6114C5.68931 12.5596 6.0303 12.3741 6.26598 11.8024C6.81089 10.4769 7.42099 9.17985 8.05114 7.79083C8.07206 7.74164 8.10698 7.6997 8.15156 7.67021C8.19615 7.64072 8.24842 7.625 8.30187 7.625C8.35532 7.625 8.40759 7.64072 8.45217 7.67021C8.49675 7.6997 8.53167 7.74164 8.55259 7.79083C9.11087 8.9893 9.66915 10.1109 10.1054 11.2776C10.4648 12.2404 10.9846 12.6382 12.0343 12.6666C13.2729 12.7 14.5048 12.9023 15.8136 13.0728C15.8649 13.0801 15.9132 13.1018 15.9527 13.1354C15.9922 13.1691 16.0213 13.2132 16.0367 13.2628C16.0521 13.3123 16.0532 13.3652 16.0397 13.4153C16.0262 13.4654 15.9988 13.5107 15.9607 13.5458C14.8307 14.5838 13.7677 15.575 12.6728 16.5294C12.2633 16.8821 12.1463 17.2164 12.2717 17.753C12.5976 19.167 12.8801 20.5912 13.186 22.0838Z" fill="#0C7FDA"/>
<path d="M46.7636 22.3845C46.7179 22.4101 46.6658 22.4221 46.6135 22.419C46.5612 22.416 46.5109 22.398 46.4686 22.3672C46.4262 22.3364 46.3935 22.2941 46.3744 22.2454C46.3553 22.1966 46.3505 22.1434 46.3607 22.092C46.6817 20.5075 46.9775 19.0182 47.3018 17.5355C47.3528 17.3826 47.354 17.2174 47.3054 17.0637C47.2567 16.9099 47.1607 16.7755 47.031 16.6797C45.8961 15.6768 44.7812 14.6388 43.5977 13.5557C43.5588 13.5205 43.5308 13.4749 43.5172 13.4242C43.5035 13.3735 43.5048 13.32 43.5209 13.27C43.537 13.22 43.5671 13.1758 43.6077 13.1426C43.6483 13.1093 43.6977 13.0885 43.7499 13.0827C45.1422 12.9155 46.466 12.7484 47.7949 12.6397C48.5537 12.5829 49.0067 12.3606 49.2992 11.595C49.7923 10.3264 50.389 9.09948 50.9908 7.79571C51.0117 7.74653 51.0466 7.70458 51.0912 7.67509C51.1358 7.6456 51.1881 7.62988 51.2415 7.62988C51.295 7.62988 51.3472 7.6456 51.3918 7.67509C51.4364 7.70458 51.4713 7.74653 51.4922 7.79571C52.1241 9.17971 52.7425 10.4918 53.2908 11.8324C53.5315 12.4207 53.9126 12.5578 54.4608 12.6113C55.8649 12.7484 57.2689 12.9088 58.7599 13.0726C58.8126 13.0765 58.863 13.0956 58.905 13.1277C58.947 13.1597 58.9789 13.2032 58.9966 13.253C59.0143 13.3028 59.0171 13.3566 59.0048 13.408C58.9925 13.4594 58.9655 13.506 58.9271 13.5423C58.0779 14.3497 57.3091 15.1486 56.4198 15.7788C55.228 16.6262 55.0325 17.5756 55.4537 18.9045C55.7796 19.9358 55.9351 21.0206 56.139 22.0904C56.1495 22.1428 56.1443 22.1972 56.124 22.2467C56.1038 22.2962 56.0694 22.3387 56.0252 22.3688C55.981 22.3989 55.9289 22.4154 55.8755 22.4161C55.822 22.4168 55.7695 22.4018 55.7245 22.3729L55.6927 22.3545C54.3555 21.6006 53.0183 20.8418 51.6895 20.0628C51.566 19.974 51.4178 19.9262 51.2657 19.9262C51.1137 19.9262 50.9655 19.974 50.842 20.0628C49.5082 20.8334 48.171 21.5856 46.7636 22.3845Z" fill="#0C7FDA"/>
<path d="M16.6752 59.6159C15.099 59.5875 14.1112 58.1032 14.7413 56.8145C15.6088 55.0427 16.5549 53.3043 17.5177 51.586C18.0342 50.665 19.2978 50.3692 20.1921 50.8689C20.635 51.1137 20.968 51.518 21.1233 51.9997C21.2786 52.4814 21.2444 53.0041 21.0278 53.4614C20.1453 55.2031 19.2142 56.9214 18.2749 58.6331C18.1211 58.9255 17.8914 59.1711 17.6099 59.344C17.3285 59.517 17.0056 59.6109 16.6752 59.6159Z" fill="#333F49"/>
<path d="M20.5158 59.5589C20.5104 59.1937 20.6084 58.8345 20.7983 58.5226C21.4669 57.2572 22.1355 55.9902 22.8242 54.7316C23.4242 53.6234 24.5976 53.2272 25.6156 53.7655C26.6335 54.3037 26.9528 55.5155 26.3761 56.6254C25.6808 57.9492 24.9838 59.2714 24.2516 60.5752C24.0348 60.9701 23.6877 61.2777 23.2696 61.4456C22.8515 61.6135 22.3881 61.6314 21.9583 61.4962C21.5401 61.3738 21.1731 61.1185 20.9128 60.769C20.6525 60.4195 20.5132 59.9947 20.5158 59.5589Z" fill="#333F49"/>
<path d="M12.2222 54.6348C10.7881 54.6465 9.7651 53.1906 10.3752 51.8868C11.0171 50.5129 11.7542 49.1773 12.513 47.8635C13.0245 46.9743 14.1845 46.7102 15.0938 47.1782C16.0031 47.6462 16.4661 48.7628 16.0232 49.6855C15.3546 51.0728 14.6141 52.4234 13.8619 53.7673C13.536 54.3473 12.8992 54.6281 12.2222 54.6348Z" fill="#333F49"/>
<path d="M34.3263 58.8203C34.928 59.1546 35.4796 59.4404 36.0178 59.7513C37.0675 60.3598 37.4236 61.5482 36.8653 62.5394C36.3237 63.5022 35.1453 63.8231 34.1023 63.2899C32.6615 62.5544 32.6631 62.5561 33.4254 61.117C33.6326 60.756 33.8195 60.3838 33.9853 60.0021C34.1193 59.6143 34.2331 59.2199 34.3263 58.8203Z" fill="#333F49"/>
</g>
<defs>
<clipPath id="clip0_4242_3284">
<rect width="58.4372" height="64" fill="white" transform="translate(0.5625)"/>
</clipPath>
</defs>
</svg>
