<svg width="24" height="24" viewBox="0 0 24 24" fill="none" xmlns="http://www.w3.org/2000/svg">
<path fill-rule="evenodd" clip-rule="evenodd" d="M9.76711 16.4292L6.33243 12.829C6.28082 12.7749 6.25562 12.7077 6.21602 12.6477C6.17281 12.5829 6.12121 12.5253 6.09121 12.4533C6.0324 12.3081 6 12.1545 6 12.0009C6 11.8437 6.0324 11.6877 6.09241 11.5412C6.15361 11.3948 6.24122 11.2616 6.35283 11.1512L9.95192 7.55212C10.4212 7.08289 11.1808 7.08289 11.6489 7.55212C12.1181 8.02016 12.1181 8.77982 11.6489 9.24906L10.0971 10.8008H16.8009C17.4645 10.8008 18.001 11.3372 18.001 12.0009C18.001 12.6633 17.4645 13.201 16.8009 13.201H10.0047L11.5036 14.7719C11.9609 15.252 11.9441 16.0104 11.464 16.4689C10.984 16.9273 10.2243 16.9081 9.76711 16.4292ZM24.002 12.001C24.002 5.38244 18.6183 0 12.001 0C5.38364 0 0 5.38244 0 12.001C0 18.6183 5.38364 24.002 12.001 24.002C18.6183 24.002 24.002 18.6183 24.002 12.001Z" fill="#1E99FC"/>
</svg>
