<svg width="48" height="48" viewBox="0 0 48 48" fill="none" xmlns="http://www.w3.org/2000/svg">
<path d="M42.9257 5.40739C43.3789 5.40739 43.8135 5.58968 44.134 5.91415C44.4545 6.23863 44.6346 6.67871 44.6346 7.13758V40.8624C44.6346 41.3213 44.4545 41.7614 44.134 42.0858C43.8135 42.4103 43.3789 42.5926 42.9257 42.5926H5.07435C4.62112 42.5926 4.18645 42.4103 3.86597 42.0858C3.54549 41.7614 3.36545 41.3213 3.36545 40.8624V7.13758C3.36545 6.67871 3.54549 6.23863 3.86597 5.91415C4.18645 5.58968 4.62112 5.40739 5.07435 5.40739H42.9257ZM42.9257 2H5.07435C3.72895 2.00134 2.43904 2.54305 1.4877 3.50624C0.536361 4.46943 0.00132 5.77542 0 7.13758V40.8624C0.00132 42.2246 0.536361 43.5306 1.4877 44.4938C2.43904 45.457 3.72895 45.9987 5.07435 46H42.9257C44.271 45.9987 45.561 45.457 46.5123 44.4938C47.4636 43.5306 47.9987 42.2246 48 40.8624V7.13758C47.9987 5.77542 47.4636 4.46943 46.5123 3.50624C45.561 2.54305 44.271 2.00134 42.9257 2Z" fill="url(#paint0_linear_128_500)"/>
<path d="M29.7767 17.5839C30.5244 17.5851 31.0775 17.9959 31.292 18.6746C31.49 19.3009 31.2602 19.9689 30.708 20.3617C30.4257 20.5625 30.1091 20.6458 29.7623 20.6457C23.6592 20.6446 17.5561 20.6483 11.4529 20.6444C10.5564 20.6438 9.87814 19.9774 9.87019 19.1285C9.86201 18.2555 10.5426 17.583 11.4673 17.5812C14.5349 17.5753 26.7411 17.5788 29.7767 17.5839Z" fill="#0966AF"/>
<path d="M11.5728 13.9834C10.5649 13.9819 9.86423 13.3421 9.87127 12.4381C9.87818 11.5505 10.5682 10.9197 11.5482 10.9191C15.0344 10.9172 18.5205 10.9177 22.0066 10.9207C22.9852 10.9215 23.6799 11.555 23.6865 12.4389C23.6932 13.3422 22.9928 13.9802 21.9832 13.9818C20.2401 13.9845 13.2998 13.986 11.5728 13.9834Z" fill="#0966AF"/>
<path d="M39.5389 21.9041C39.4012 21.2676 39.0094 20.8416 38.379 20.6989C37.7078 20.5469 37.1533 20.7834 36.7487 21.3472C35.8471 22.6036 30.1933 30.5332 30.1918 30.5352C29.8522 31.002 29.6073 30.9901 29.1353 30.7484C26.7513 29.5277 24.3461 28.3484 21.9466 27.1581C20.9091 26.6435 20.1236 26.9027 19.6067 27.9257C19.0825 28.9634 15.0921 34.9111 14.1311 36.8521C13.6576 37.8086 14.1034 38.8307 15.0849 39.1019C15.8096 39.3021 16.4553 38.9162 16.9081 38.1434C18.3605 35.6648 19.6086 33.9921 21.5213 30.921C21.753 30.549 21.8567 30.5103 22.2244 30.6983C24.6168 31.9219 27.0219 33.121 29.4254 34.323C30.2056 34.7131 30.9553 34.5915 31.4565 33.9711C31.7655 33.5885 37.9207 24.9482 39.1895 23.1998C39.4725 22.8099 39.6445 22.3922 39.5389 21.9041Z" fill="url(#paint1_linear_128_500)"/>
<defs>
<linearGradient id="paint0_linear_128_500" x1="24" y1="2" x2="24" y2="46" gradientUnits="userSpaceOnUse">
<stop offset="0.105" stop-color="#0966AF"/>
<stop offset="0.915" stop-color="#48A8F5"/>
</linearGradient>
<linearGradient id="paint1_linear_128_500" x1="17.3267" y1="38.2286" x2="36.3803" y2="21.0875" gradientUnits="userSpaceOnUse">
<stop offset="0.124255" stop-color="#48A8F5"/>
<stop offset="1" stop-color="#0966AF"/>
</linearGradient>
</defs>
</svg>
