<svg width="48" height="48" viewBox="0 0 48 48" fill="none" xmlns="http://www.w3.org/2000/svg">
<path d="M46.5123 3.50629C45.561 2.54309 44.271 2.00134 42.9257 2H5.07434C3.72894 2.00134 2.43903 2.54309 1.48767 3.50629C0.536316 4.46948 0.0012817 5.77545 0 7.13757V40.8624C0.0012817 42.2246 0.536316 43.5306 1.48767 44.4938C2.43903 45.457 3.72894 45.9987 5.07434 46H42.9257C44.271 45.9987 45.561 45.457 46.5123 44.4938C47.4636 43.5306 47.9987 42.2246 48 40.8624V7.13757C47.9987 5.77545 47.4636 4.46948 46.5123 3.50629ZM3.36542 7.13757C3.36542 6.67871 3.54547 6.23865 3.86597 5.91418C4.1864 5.58972 4.62109 5.40741 5.07434 5.40741H22.343C22.3395 9.07245 22.3331 17.7758 22.3475 22.1045C22.3491 22.5708 22.2218 22.6587 21.7821 22.6554C19.441 22.6378 7.43817 22.6484 3.36542 22.6525V7.13757ZM22.3456 42.5927H5.07434C4.62109 42.5927 4.1864 42.4103 3.86597 42.0858C3.54547 41.7614 3.36542 41.3214 3.36542 40.8624V25.8321C7.43146 25.8323 19.3975 25.8316 21.7043 25.813C22.1809 25.8091 22.3513 25.8864 22.3492 26.4208C22.3316 30.8309 22.3429 40.5298 22.3456 42.5927ZM27.312 42.5927C28.3483 41.3433 29.386 40.0948 30.4285 38.8506C31.2034 37.9258 32.1772 37.8999 32.9492 38.8085C34.0123 40.0597 35.0555 41.3278 36.1024 42.5927H27.312ZM44.6346 40.8624C44.6346 41.3214 44.4545 41.7614 44.134 42.0858C43.8135 42.4103 43.3788 42.5927 42.9257 42.5927H39.3843C37.9442 40.8461 36.4863 39.1142 35.0409 37.372C33.1412 35.0823 30.2391 35.0786 28.3463 37.3672C27.4296 38.4756 26.5076 39.5797 25.5877 40.6853C25.5894 37.0225 25.5898 29.9218 25.5719 26.4687C25.569 25.9177 25.721 25.8099 26.2436 25.8117C30.8865 25.8281 41.2522 25.8176 44.6346 25.8135V40.8624ZM44.6346 22.6527C41.2314 22.6497 30.7582 22.642 26.1447 22.6552C25.6987 22.6564 25.5704 22.5612 25.5743 22.0965C25.5984 19.2473 25.5864 16.7205 25.5864 13.8712C25.5864 12.0093 25.5813 7.77722 25.5782 5.40741H42.9257C43.3788 5.40741 43.8135 5.58972 44.134 5.91418C44.4545 6.23865 44.6346 6.67871 44.6346 7.13757V22.6527Z" fill="url(#paint0_linear_130_510)"/>
<path d="M8.19368 10.492C11.4102 10.5011 14.6267 10.4956 17.8432 10.4956C18.1161 10.4956 18.374 10.4461 18.6034 10.2854C19.041 9.97859 19.2277 9.43459 19.0687 8.91817C18.9047 8.38509 18.4747 8.06306 17.8531 8.05922C16.2449 8.04933 14.6366 8.05592 13.0284 8.05568C11.4201 8.0555 9.81184 8.04878 8.20363 8.05836C7.42976 8.063 6.88783 8.57777 6.88466 9.27425C6.88142 9.97963 7.40474 10.4898 8.19368 10.492Z" fill="url(#paint1_linear_130_510)"/>
<path d="M8.31709 15.407C9.88697 15.411 11.4569 15.4081 13.0267 15.4081C14.5967 15.4081 16.1666 15.4121 17.7365 15.4066C18.5673 15.4036 19.119 14.9243 19.1387 14.2091C19.1586 13.4837 18.5899 12.9702 17.7298 12.9688C14.59 12.9634 11.4503 12.9638 8.31044 12.9684C7.4286 12.9698 6.88173 13.4476 6.88466 14.1863C6.88752 14.9201 7.44978 15.4048 8.31709 15.407Z" fill="url(#paint2_linear_130_510)"/>
<path d="M12.8548 17.8531C11.3258 17.8404 9.79666 17.8409 8.26779 17.853C7.43277 17.8596 6.89597 18.3481 6.88565 19.0665C6.87497 19.8081 7.42178 20.3042 8.29001 20.3172C9.05435 20.3287 9.819 20.3196 10.5835 20.3195C11.3481 20.3193 12.1128 20.3325 12.877 20.3158C13.702 20.2977 14.2374 19.7924 14.231 19.0728C14.2247 18.3548 13.6868 17.86 12.8548 17.8531Z" fill="url(#paint3_linear_130_510)"/>
<path d="M36.1513 8.05606C34.7154 7.9938 33.7415 8.96213 33.7143 10.4107C33.6989 11.2288 33.695 12.0479 33.718 12.8656C33.7291 13.2579 33.668 13.3655 33.229 13.2652C31.1476 12.7893 29.0628 14.1865 28.6687 16.2795C28.2774 18.3577 29.692 20.4193 31.7443 20.7616C33.9344 21.1268 35.9099 19.7216 36.22 17.5603C36.3852 16.4089 36.2406 15.2476 36.289 14.2982C36.289 13.0938 36.3156 12.0947 36.2774 11.0981C36.2594 10.6276 36.4623 10.6089 36.8041 10.7034C37.7558 10.9664 38.4539 11.539 38.9467 12.3961C39.37 13.1325 40.1262 13.3476 40.7691 12.9604C41.3941 12.5839 41.5643 11.8565 41.154 11.1302C40.056 9.18673 38.3752 8.15243 36.1513 8.05606ZM32.4966 18.2587C31.7679 18.2824 31.1783 17.7339 31.1668 17.0219C31.1554 16.3122 31.7375 15.7203 32.4465 15.7204C33.1377 15.7204 33.6925 16.2717 33.7047 16.9705C33.7173 17.6841 33.1997 18.2359 32.4966 18.2587Z" fill="url(#paint4_linear_130_510)"/>
<path d="M17.3973 31.6963C15.5405 30.7582 13.69 29.8066 11.8162 28.9033C9.7508 27.9077 7.45753 29.3556 7.42628 31.6491C7.41358 32.5825 7.4242 33.5162 7.4242 34.4498C7.42414 35.3835 7.41487 36.3171 7.42597 37.2506C7.45368 39.5764 9.74995 41.0152 11.8468 39.9996C13.7025 39.1007 15.5385 38.1612 17.3799 37.233C18.5111 36.6627 19.129 35.7243 19.1316 34.4694C19.1342 33.2164 18.5304 32.2688 17.3973 31.6963ZM16.3439 35.1234C14.5443 36.0485 12.7357 36.957 10.9147 37.8392C10.2374 38.1675 9.76515 37.8283 9.76014 37.0744C9.75434 36.1965 9.7588 35.3185 9.7588 34.4406C9.75886 33.5626 9.75306 32.6846 9.76057 31.8067C9.7671 31.0471 10.1892 30.7364 10.8573 31.06C12.6948 31.9498 14.5208 32.8639 16.3382 33.7941C16.9671 34.116 16.9706 34.8013 16.3439 35.1234Z" fill="url(#paint5_linear_130_510)"/>
<path d="M38.0354 35.6016C40.1236 35.633 41.8624 33.9008 41.8604 31.7914C41.8583 29.6578 40.1873 27.9849 38.0538 27.9805C35.9463 27.9761 34.2239 29.7029 34.241 31.803C34.2579 33.8792 35.9471 35.5702 38.0354 35.6016ZM38.0424 30.5125C38.7217 30.5032 39.3037 31.0545 39.3289 31.7312C39.3553 32.4401 38.793 33.0283 38.0793 33.0383C37.3744 33.0481 36.8273 32.5285 36.8054 31.8283C36.7828 31.1076 37.3331 30.5222 38.0424 30.5125Z" fill="url(#paint6_linear_130_510)"/>
<defs>
<linearGradient id="paint0_linear_130_510" x1="24" y1="2" x2="24" y2="46" gradientUnits="userSpaceOnUse">
<stop stop-color="#0966AF"/>
<stop offset="1" stop-color="#48A8F5"/>
</linearGradient>
<linearGradient id="paint1_linear_130_510" x1="13.0047" y1="8.05322" x2="13.0047" y2="10.4972" gradientUnits="userSpaceOnUse">
<stop stop-color="#0966AF"/>
<stop offset="1" stop-color="#48A8F5"/>
</linearGradient>
<linearGradient id="paint2_linear_130_510" x1="13.0119" y1="12.9648" x2="13.0119" y2="15.4095" gradientUnits="userSpaceOnUse">
<stop stop-color="#0966AF"/>
<stop offset="1" stop-color="#48A8F5"/>
</linearGradient>
<linearGradient id="paint3_linear_130_510" x1="10.5583" y1="17.8438" x2="10.5583" y2="20.3243" gradientUnits="userSpaceOnUse">
<stop stop-color="#0966AF"/>
<stop offset="1" stop-color="#48A8F5"/>
</linearGradient>
<linearGradient id="paint4_linear_130_510" x1="34.9905" y1="8.05322" x2="34.9905" y2="20.8192" gradientUnits="userSpaceOnUse">
<stop stop-color="#0966AF"/>
<stop offset="1" stop-color="#48A8F5"/>
</linearGradient>
<linearGradient id="paint5_linear_130_510" x1="13.2758" y1="28.584" x2="13.2758" y2="40.3303" gradientUnits="userSpaceOnUse">
<stop stop-color="#0966AF"/>
<stop offset="1" stop-color="#48A8F5"/>
</linearGradient>
<linearGradient id="paint6_linear_130_510" x1="38.0506" y1="27.9805" x2="38.0506" y2="35.6021" gradientUnits="userSpaceOnUse">
<stop stop-color="#0966AF"/>
<stop offset="1" stop-color="#48A8F5"/>
</linearGradient>
</defs>
</svg>
