<svg width="48" height="48" viewBox="0 0 48 48" fill="none" xmlns="http://www.w3.org/2000/svg">
<g clip-path="url(#clip0_133_707)">
<path d="M31.6885 15.9924C29.3302 16.04 27.1711 15.3892 25.1855 14.1634C24.3391 13.6409 23.5994 13.667 22.7633 14.1839C20.8061 15.3938 18.676 16.0304 16.3521 15.9905C15.402 15.9743 14.832 16.5831 14.815 17.5376C14.8018 18.2779 14.8124 19.0188 14.8124 19.7594H14.8171C14.8171 20.178 14.8152 20.5966 14.8179 21.0152C14.819 21.1922 14.8233 21.3696 14.8368 21.5461C15.27 27.2124 18.0297 31.3402 23.0508 33.9792C23.6604 34.2995 24.2336 34.2878 24.8443 33.9836C28.3896 32.2176 30.8662 29.4957 32.2826 25.7914C33.3424 23.0193 33.2232 20.1357 33.1397 17.2575C33.1178 16.503 32.4861 15.9763 31.6885 15.9924ZM24.4407 30.9286C24.1335 31.1151 23.9098 31.1016 23.6148 30.9175C20.0044 28.6648 18.0682 25.4245 17.8513 21.1719C17.8153 20.4654 17.8436 19.7557 17.8452 19.0475C17.8452 19.0031 17.8713 18.9588 17.8819 18.9252C18.6646 18.7776 19.4656 18.7195 20.1997 18.4669C21.3794 18.061 22.5114 17.5176 23.6728 17.0554C23.8669 16.9782 24.1587 16.9278 24.3191 17.0182C26.0949 18.0174 27.9717 18.6831 30.012 18.8542C30.0729 18.8593 30.1314 18.892 30.1853 18.9099C30.6461 23.9426 28.7594 28.3056 24.4407 30.9286Z" fill="url(#paint0_linear_133_707)"/>
<path d="M0.479513 14.3772C1.13515 14.3755 1.79091 14.3722 2.44637 14.3835C2.68282 14.3876 2.75893 14.3283 2.76247 14.0814C2.76809 13.6824 2.7983 13.2793 2.86678 12.8863C3.67824 8.23062 7.37746 4.96768 12.0789 4.76345C12.3259 4.75271 12.3845 4.6846 12.3805 4.44918C12.3693 3.77957 12.3728 3.10965 12.3745 2.43978C12.375 2.19809 12.1726 2.00747 11.9315 2.02505C11.279 2.07266 10.2409 2.18496 9.94625 2.24331C4.89638 3.24313 0.956625 7.34927 0.149069 12.4557C0.127706 12.5906 0.0559289 13.3317 0.0203454 13.8922C0.00356073 14.1565 0.21462 14.3778 0.479513 14.3772Z" fill="url(#paint1_linear_133_707)"/>
<path d="M11.5704 7.54358C8.35756 7.96246 5.58022 10.9048 5.5005 14.0364C5.49446 14.2744 5.51222 14.3931 5.80696 14.3829C6.52388 14.3829 7.07607 14.3809 7.95436 14.3809C8.20045 14.3809 8.24818 14.3083 8.26729 14.0735C8.40968 12.3263 10.0148 10.6182 11.6408 10.1466C12.0195 10.0368 12.3808 10.0762 12.3808 9.69318C12.3808 9.24402 12.3808 8.25653 12.3808 7.92017C12.3808 7.62933 12.196 7.46204 11.5704 7.54358Z" fill="url(#paint2_linear_133_707)"/>
<path d="M35.9406 4.76345C40.642 4.96768 44.3412 8.23062 45.1527 12.8863C45.2212 13.2793 45.2514 13.6824 45.257 14.0814C45.2606 14.3283 45.3367 14.3876 45.5731 14.3835C46.2286 14.3722 46.8843 14.3755 47.54 14.3772C47.8049 14.3778 48.0159 14.1565 47.9991 13.8922C47.9636 13.3317 47.8918 12.5906 47.8704 12.4557C47.0629 7.34927 43.1231 3.24313 38.0732 2.24331C37.7786 2.18496 36.7405 2.07266 36.088 2.02505C35.8469 2.00747 35.6445 2.19809 35.645 2.43978C35.6467 3.10965 35.6502 3.77957 35.639 4.44918C35.635 4.6846 35.6935 4.75271 35.9406 4.76345Z" fill="url(#paint3_linear_133_707)"/>
<path d="M36.3787 10.1466C38.0048 10.6182 39.6099 12.3263 39.7523 14.0735C39.7714 14.3083 39.8191 14.3809 40.0652 14.3809C40.9435 14.3809 41.4957 14.3829 42.2126 14.3829C42.5073 14.3931 42.5251 14.2744 42.519 14.0364C42.4393 10.9048 39.662 7.96246 36.4492 7.54358C35.8235 7.46204 35.6388 7.62933 35.6388 7.92017C35.6388 8.25653 35.6388 9.24402 35.6388 9.69318C35.6388 10.0762 36.0001 10.0368 36.3787 10.1466Z" fill="url(#paint4_linear_133_707)"/>
<path d="M12.0789 43.2496C7.37746 43.0454 3.67824 39.7825 2.86678 35.1268C2.7983 34.7339 2.76809 34.3307 2.76247 33.9317C2.75893 33.6849 2.68282 33.6255 2.44637 33.6296C1.79091 33.6409 1.13515 33.6376 0.479513 33.6359C0.21462 33.6353 0.00356082 33.8566 0.0203454 34.1209C0.0559289 34.6814 0.127706 35.4225 0.149069 35.5574C0.956625 40.6639 4.89638 44.77 9.94625 45.7698C10.2409 45.8281 11.279 45.9404 11.9315 45.988C12.1726 46.0056 12.375 45.815 12.3745 45.5733C12.3728 44.9035 12.3693 44.2335 12.3805 43.5639C12.3845 43.3285 12.3259 43.2604 12.0789 43.2496Z" fill="url(#paint5_linear_133_707)"/>
<path d="M11.6408 37.8663C10.0148 37.3947 8.40968 35.6866 8.26729 33.9394C8.24818 33.7046 8.20045 33.632 7.95436 33.632C7.07607 33.632 6.52388 33.63 5.80696 33.63C5.51222 33.6198 5.49446 33.7385 5.5005 33.9764C5.58022 37.1081 8.35756 40.0504 11.5704 40.4693C12.196 40.5508 12.3808 40.3835 12.3808 40.0927C12.3808 39.7564 12.3808 38.7689 12.3808 38.3197C12.3808 37.9367 12.0195 37.9761 11.6408 37.8663Z" fill="url(#paint6_linear_133_707)"/>
<path d="M47.54 33.6359C46.8843 33.6376 46.2286 33.6409 45.5731 33.6296C45.3367 33.6255 45.2606 33.6849 45.257 33.9317C45.2514 34.3307 45.2212 34.7339 45.1527 35.1268C44.3412 39.7825 40.642 43.0454 35.9406 43.2496C35.6935 43.2604 35.635 43.3285 35.639 43.5639C35.6502 44.2335 35.6467 44.9035 35.645 45.5733C35.6445 45.815 35.8469 46.0056 36.088 45.988C36.7405 45.9404 37.7786 45.8281 38.0732 45.7698C43.1231 44.77 47.0629 40.6639 47.8704 35.5574C47.8918 35.4225 47.9636 34.6814 47.9991 34.1209C48.0159 33.8566 47.8049 33.6353 47.54 33.6359Z" fill="url(#paint7_linear_133_707)"/>
<path d="M36.4492 40.4693C39.662 40.0504 42.4393 37.1081 42.519 33.9764C42.5251 33.7385 42.5073 33.6198 42.2126 33.63C41.4957 33.63 40.9435 33.632 40.0652 33.632C39.8191 33.632 39.7714 33.7046 39.7523 33.9394C39.6099 35.6866 38.0048 37.3947 36.3787 37.8663C36.0001 37.9761 35.6388 37.9367 35.6388 38.3197C35.6388 38.7689 35.6388 39.7564 35.6388 40.0927C35.6388 40.3835 35.8235 40.5508 36.4492 40.4693Z" fill="url(#paint8_linear_133_707)"/>
</g>
<defs>
<linearGradient id="paint0_linear_133_707" x1="24" y1="13.7837" x2="24" y2="34.2156" gradientUnits="userSpaceOnUse">
<stop stop-color="#0966AF"/>
<stop offset="1" stop-color="#48A8F5"/>
</linearGradient>
<linearGradient id="paint1_linear_133_707" x1="6.20005" y1="2.02393" x2="6.20005" y2="14.3837" gradientUnits="userSpaceOnUse">
<stop stop-color="#0966AF"/>
<stop offset="1" stop-color="#48A8F5"/>
</linearGradient>
<linearGradient id="paint2_linear_133_707" x1="8.94019" y1="7.52295" x2="8.94019" y2="14.3835" gradientUnits="userSpaceOnUse">
<stop stop-color="#0966AF"/>
<stop offset="1" stop-color="#48A8F5"/>
</linearGradient>
<linearGradient id="paint3_linear_133_707" x1="41.8194" y1="2.02393" x2="41.8194" y2="14.3837" gradientUnits="userSpaceOnUse">
<stop stop-color="#0966AF"/>
<stop offset="1" stop-color="#48A8F5"/>
</linearGradient>
<linearGradient id="paint4_linear_133_707" x1="39.0794" y1="7.52295" x2="39.0794" y2="14.3835" gradientUnits="userSpaceOnUse">
<stop stop-color="#0966AF"/>
<stop offset="1" stop-color="#48A8F5"/>
</linearGradient>
<linearGradient id="paint5_linear_133_707" x1="6.20005" y1="33.6294" x2="6.20005" y2="45.9892" gradientUnits="userSpaceOnUse">
<stop stop-color="#0966AF"/>
<stop offset="1" stop-color="#48A8F5"/>
</linearGradient>
<linearGradient id="paint6_linear_133_707" x1="8.94019" y1="33.6294" x2="8.94019" y2="40.4899" gradientUnits="userSpaceOnUse">
<stop stop-color="#0966AF"/>
<stop offset="1" stop-color="#48A8F5"/>
</linearGradient>
<linearGradient id="paint7_linear_133_707" x1="41.8194" y1="33.6294" x2="41.8194" y2="45.9892" gradientUnits="userSpaceOnUse">
<stop stop-color="#0966AF"/>
<stop offset="1" stop-color="#48A8F5"/>
</linearGradient>
<linearGradient id="paint8_linear_133_707" x1="39.0794" y1="33.6294" x2="39.0794" y2="40.4899" gradientUnits="userSpaceOnUse">
<stop stop-color="#0966AF"/>
<stop offset="1" stop-color="#48A8F5"/>
</linearGradient>
<clipPath id="clip0_133_707">
<rect width="48" height="48" fill="white"/>
</clipPath>
</defs>
</svg>
