<svg width="48" height="48" viewBox="0 0 48 48" fill="none" xmlns="http://www.w3.org/2000/svg">
<g clip-path="url(#clip0_6_2160)">
<path d="M27.0746 24.0759C27.0746 24.6757 26.894 25.262 26.5556 25.7607C26.2172 26.2594 25.7362 26.6481 25.1734 26.8776C24.6107 27.1071 23.9914 27.1672 23.394 27.0502C22.7966 26.9332 22.2478 26.6443 21.8171 26.2202C21.3864 25.7961 21.0931 25.2558 20.9742 24.6676C20.8554 24.0793 20.9164 23.4696 21.1495 22.9155C21.3826 22.3613 21.7773 21.8877 22.2838 21.5545C22.7903 21.2213 23.3857 21.0435 23.9948 21.0435C24.8116 21.0435 25.595 21.363 26.1726 21.9317C26.7502 22.5004 27.0746 23.2717 27.0746 24.0759Z" stroke="#1E252B" stroke-width="2"/>
<path d="M33.2548 22.8425C33.7373 23.3479 33.9734 23.6006 33.9734 24.005C33.9734 24.4093 33.7373 24.6519 33.2548 25.1573C31.5917 26.8959 28.0704 29.9891 24.0154 29.9891C19.9603 29.9891 16.4288 26.8959 14.776 25.1573C14.2935 24.6519 14.0574 24.3992 14.0574 24.005C14.0574 23.6107 14.2935 23.3479 14.776 22.8425C16.4083 21.1039 19.9295 18.0107 23.9948 18.0107C28.0602 18.0107 31.5917 21.1039 33.2548 22.8425Z" stroke="#1E252B" stroke-width="2"/>
</g>
<defs>
<clipPath id="clip0_6_2160">
<rect width="22" height="14" fill="white" transform="translate(13 17)"/>
</clipPath>
</defs>
</svg>
