<svg width="48" height="48" viewBox="0 0 48 48" fill="none" xmlns="http://www.w3.org/2000/svg">
<path d="M46.5123 3.50623C45.561 2.54309 44.271 2.00134 42.9257 2H5.0744C3.729 2.00134 2.43909 2.54309 1.48773 3.50623C0.536377 4.46942 0.0013428 5.77545 0 7.13757V40.8624C0.0013428 42.2246 0.536377 43.5306 1.48773 44.4938C2.43909 45.457 3.729 45.9987 5.0744 46H42.9257C44.271 45.9987 45.561 45.457 46.5123 44.4938C47.4636 43.5306 47.9987 42.2246 48 40.8624V7.13757C47.9987 5.77545 47.4636 4.46942 46.5123 3.50623ZM44.6346 40.8624C44.6346 41.3213 44.4545 41.7614 44.134 42.0858C43.8135 42.4103 43.3789 42.5926 42.9257 42.5926H5.0744C4.62115 42.5926 4.18646 42.4103 3.86597 42.0858C3.54553 41.7614 3.36548 41.3213 3.36548 40.8624V7.13757C3.36548 6.67871 3.54553 6.23865 3.86597 5.91418C4.18646 5.58972 4.62115 5.40741 5.0744 5.40741H42.9257C43.3789 5.40741 43.8135 5.58972 44.134 5.91418C44.4545 6.23865 44.6346 6.67871 44.6346 7.13757V40.8624Z" fill="url(#paint0_linear_132_648)"/>
<path d="M39.2382 16.9888C39.2382 15.55 38.4226 14.311 37.2382 13.6696V12.8602C37.2382 11.8722 36.4373 11.0713 35.4493 11.0713C34.4614 11.0713 33.6604 11.8722 33.6604 12.8602V13.6697C32.476 14.311 31.6604 15.55 31.6604 16.9888C31.6604 18.4277 32.476 19.6667 33.6604 20.308V35.1395C33.6604 36.1275 34.4614 36.9285 35.4493 36.9285C36.4373 36.9285 37.2382 36.1275 37.2382 35.1395V20.3081C38.4226 19.6667 39.2382 18.4277 39.2382 16.9888ZM37.2019 17.3494C37.1542 17.5823 37.0613 17.7986 36.9327 17.989C36.8041 18.1794 36.6398 18.3436 36.4495 18.4722C36.164 18.6652 35.8198 18.7777 35.4493 18.7777C34.9554 18.7777 34.5081 18.5775 34.1844 18.2538C34.1035 18.1729 34.0302 18.0842 33.9659 17.989C33.8373 17.7986 33.7444 17.5823 33.6967 17.3494C33.6729 17.2329 33.6604 17.1123 33.6604 16.9888C33.6604 16.8654 33.6729 16.7448 33.6967 16.6283C33.7444 16.3954 33.8373 16.179 33.9659 15.9886C34.0302 15.8935 34.1035 15.8048 34.1844 15.7239C34.2938 15.6145 34.4214 15.5256 34.556 15.4474C34.8198 15.2941 35.1223 15.2 35.4493 15.2C35.8198 15.2 36.164 15.3126 36.4495 15.5054C36.6398 15.634 36.8041 15.7983 36.9327 15.9886C37.0613 16.179 37.1542 16.3954 37.2019 16.6283C37.2257 16.7448 37.2382 16.8654 37.2382 16.9888C37.2382 17.1123 37.2257 17.2329 37.2019 17.3494Z" fill="url(#paint1_linear_132_648)"/>
<path d="M16.8405 30.7476C16.8405 29.3087 16.025 28.0698 14.8405 27.4284V12.8602C14.8405 11.8722 14.0396 11.0713 13.0516 11.0713C12.0637 11.0713 11.2627 11.8722 11.2627 12.8602V27.4283C10.0783 28.0697 9.2627 29.3087 9.2627 30.7476C9.2627 32.1865 10.0783 33.4255 11.2627 34.0668V35.1395C11.2627 36.1275 12.0636 36.9285 13.0516 36.9285C14.0396 36.9285 14.8405 36.1275 14.8405 35.1395V34.0668C16.025 33.4254 16.8405 32.1865 16.8405 30.7476ZM14.8042 31.1081C14.772 31.2655 14.7125 31.4113 14.6419 31.5508C14.4852 31.8602 14.2437 32.1154 13.9449 32.289C13.6811 32.4423 13.3787 32.5364 13.0516 32.5364C12.1871 32.5364 11.4658 31.9233 11.299 31.1081C11.2752 30.9916 11.2627 30.871 11.2627 30.7476C11.2627 30.6241 11.2752 30.5035 11.299 30.387C11.3312 30.2296 11.3907 30.0837 11.4613 29.9443C11.5996 29.6712 11.7994 29.4344 12.0514 29.2642C12.3369 29.0713 12.6811 28.9587 13.0516 28.9587C13.9161 28.9587 14.6374 29.5719 14.8042 30.387C14.828 30.5035 14.8405 30.6241 14.8405 30.7476C14.8405 30.871 14.828 30.9916 14.8042 31.1081Z" fill="url(#paint2_linear_132_648)"/>
<path d="M28.0394 23.5758C28.0394 22.1369 27.2238 20.8979 26.0394 20.2566V12.8602C26.0394 11.8722 25.2385 11.0713 24.2505 11.0713C23.2625 11.0713 22.4615 11.8722 22.4615 12.8602V20.2565C21.2772 20.8979 20.4615 22.1369 20.4615 23.5758C20.4615 25.0146 21.2772 26.2537 22.4615 26.895V35.1395C22.4615 36.1275 23.2625 36.9285 24.2505 36.9285C25.2385 36.9285 26.0394 36.1275 26.0394 35.1395V26.895C27.2238 26.2536 28.0394 25.0146 28.0394 23.5758ZM25.5154 24.8407C25.3535 25.0026 25.1608 25.1336 24.9468 25.2241C24.7327 25.3146 24.4975 25.3647 24.2505 25.3647C23.2625 25.3647 22.4615 24.5637 22.4615 23.5757C22.4615 23.3287 22.5116 23.0935 22.6021 22.8795C22.6926 22.6655 22.8237 22.4727 22.9855 22.3109C23.1474 22.149 23.3401 22.0179 23.5541 21.9274C23.7681 21.8369 24.0035 21.7869 24.2505 21.7869C25.2385 21.7869 26.0394 22.5878 26.0394 23.5757C26.0394 23.8228 25.9893 24.0581 25.8988 24.2721C25.8083 24.4861 25.6772 24.6788 25.5154 24.8407Z" fill="url(#paint3_linear_132_648)"/>
<defs>
<linearGradient id="paint0_linear_132_648" x1="24" y1="2" x2="24" y2="46" gradientUnits="userSpaceOnUse">
<stop stop-color="#0966AF"/>
<stop offset="1" stop-color="#48A8F5"/>
</linearGradient>
<linearGradient id="paint1_linear_132_648" x1="35.4493" y1="11.0713" x2="35.4493" y2="36.9285" gradientUnits="userSpaceOnUse">
<stop stop-color="#0966AF"/>
<stop offset="1" stop-color="#48A8F5"/>
</linearGradient>
<linearGradient id="paint2_linear_132_648" x1="13.0516" y1="11.0713" x2="13.0516" y2="36.9285" gradientUnits="userSpaceOnUse">
<stop stop-color="#0966AF"/>
<stop offset="1" stop-color="#48A8F5"/>
</linearGradient>
<linearGradient id="paint3_linear_132_648" x1="24.2505" y1="11.0713" x2="24.2505" y2="36.9285" gradientUnits="userSpaceOnUse">
<stop stop-color="#0966AF"/>
<stop offset="1" stop-color="#48A8F5"/>
</linearGradient>
</defs>
</svg>
