<svg width="25" height="25" viewBox="0 0 25 25" fill="none" xmlns="http://www.w3.org/2000/svg">
<path fill-rule="evenodd" clip-rule="evenodd" d="M21.497 11.474H21.5C22.051 11.474 22.499 11.92 22.5 12.471C22.508 15.142 21.475 17.657 19.591 19.551C17.708 21.445 15.2 22.492 12.529 22.5H12.5C9.83905 22.5 7.33605 21.468 5.44905 19.591C3.55505 17.708 2.50805 15.2 2.50005 12.529C2.49205 9.857 3.52505 7.343 5.40905 5.449C7.29205 3.555 9.80005 2.508 12.471 2.5C13.266 2.512 14.076 2.592 14.852 2.778C15.388 2.908 15.719 3.448 15.589 3.985C15.46 4.521 14.917 4.851 14.383 4.723C13.762 4.573 13.103 4.51 12.477 4.5C10.34 4.506 8.33305 5.344 6.82705 6.859C5.32005 8.374 4.49405 10.386 4.50005 12.523C4.50605 14.66 5.34405 16.666 6.85905 18.173C8.36905 19.674 10.371 20.5 12.5 20.5H12.523C14.66 20.494 16.667 19.656 18.173 18.141C19.68 16.625 20.506 14.614 20.5 12.477C20.499 11.925 20.945 11.475 21.497 11.474ZM8.79305 11.7929C9.18405 11.4019 9.81605 11.4019 10.207 11.7929L12.451 14.0369L18.748 6.8409C19.112 6.4279 19.743 6.3839 20.159 6.7479C20.574 7.1109 20.616 7.7429 20.252 8.1589L13.252 16.1589C13.07 16.3669 12.81 16.4899 12.533 16.4999H12.5C12.235 16.4999 11.981 16.3949 11.793 16.2069L8.79305 13.2069C8.40205 12.8159 8.40205 12.1839 8.79305 11.7929Z" fill="#1E99FC"/>
</svg>
