<svg width="100" height="42" viewBox="0 0 100 42" fill="none" xmlns="http://www.w3.org/2000/svg">
<path d="M96.5393 0H3.46069C2.54286 0 1.66262 0.361367 1.01361 1.0046C0.364608 1.64784 0 2.52026 0 3.42993L0 38.5701C0 39.4797 0.364608 40.3522 1.01361 40.9954C1.66262 41.6386 2.54286 42 3.46069 42H96.5393C97.4571 42 98.3374 41.6386 98.9864 40.9954C99.6354 40.3522 100 39.4797 100 38.5701V3.42993C100 2.52026 99.6354 1.64784 98.9864 1.0046C98.3374 0.361367 97.4571 0 96.5393 0Z" fill="#0966AF"/>
<path d="M38.6009 27.5814C38.544 27.5238 38.4761 27.478 38.4012 27.4468C38.3263 27.4155 38.2458 27.3994 38.1645 27.3994C38.0832 27.3994 38.0027 27.4155 37.9277 27.4468C37.8528 27.478 37.7849 27.5238 37.7281 27.5814L35.5735 29.6926C35.5592 29.7093 35.5469 29.7276 35.5369 29.7471L35.4942 29.6926L33.3396 27.5814C33.2828 27.5238 33.2149 27.478 33.14 27.4468C33.065 27.4155 32.9845 27.3994 32.9032 27.3994C32.8219 27.3994 32.7414 27.4155 32.6665 27.4468C32.5916 27.478 32.5237 27.5238 32.4668 27.5814L30.3123 29.6926C30.2523 29.7491 30.2045 29.8171 30.1718 29.8925C30.1392 29.9679 30.1223 30.0491 30.1223 30.1312C30.1223 30.2132 30.1392 30.2944 30.1718 30.3698C30.2045 30.4452 30.2523 30.5132 30.3123 30.5698L32.4668 32.6749C32.5237 32.7325 32.5916 32.7783 32.6665 32.8095C32.7414 32.8408 32.8219 32.8569 32.9032 32.8569C32.9845 32.8569 33.065 32.8408 33.14 32.8095C33.2149 32.7783 33.2828 32.7325 33.3396 32.6749L35.4942 30.5698C35.4942 30.5698 35.4942 30.5274 35.5369 30.5093C35.5468 30.5307 35.5591 30.551 35.5735 30.5698L37.7281 32.6749C37.7849 32.7325 37.8528 32.7783 37.9277 32.8095C38.0027 32.8408 38.0832 32.8569 38.1645 32.8569C38.2458 32.8569 38.3263 32.8408 38.4012 32.8095C38.4761 32.7783 38.544 32.7325 38.6009 32.6749L40.7554 30.5698C40.8154 30.5132 40.8632 30.4452 40.8959 30.3698C40.9285 30.2944 40.9454 30.2132 40.9454 30.1312C40.9454 30.0491 40.9285 29.9679 40.8959 29.8925C40.8632 29.8171 40.8154 29.7491 40.7554 29.6926L38.6009 27.5814Z" fill="white"/>
<path d="M88.3143 17.9511C88.1652 16.319 87.4912 14.7774 86.3917 13.5533C86.2684 13.4132 86.1315 13.2856 85.9828 13.1722C84.7621 12.1378 82.9311 11.4603 80.1784 11.7385C80.1784 11.7385 75.3505 12.1257 71.1452 19.3606H69.8512C69.0272 19.3606 68.777 17.5458 68.484 17.0135C68.4445 16.94 68.3876 16.8771 68.3182 16.8303C68.2488 16.7834 68.1689 16.7539 68.0855 16.7444C68.002 16.7349 67.9175 16.7456 67.8391 16.7756C67.7608 16.8056 67.6909 16.854 67.6356 16.9167C67.4317 17.1789 67.2786 17.4763 67.184 17.7938C67.0292 18.1332 66.8234 18.4473 66.5736 18.7254C66.4638 18.8585 66.3478 18.9916 66.2257 19.1186C65.907 19.421 65.4829 19.59 65.0416 19.5905H62.7345C62.7345 19.5905 62.0387 14.7511 58.462 12.6641C57.7251 12.2428 56.8967 12.0036 56.0467 11.9668C55.1968 11.9299 54.3505 12.0965 53.5792 12.4523C51.8275 13.4263 49.5387 15.3318 48.9772 19.8203H44.0944C44.302 17.6391 43.8786 15.4443 42.8737 13.4928C42.827 13.4153 42.7635 13.3491 42.6877 13.2991C42.612 13.2491 42.5259 13.2166 42.4358 13.2038C42.3456 13.191 42.2538 13.1984 42.1669 13.2254C42.0801 13.2524 42.0004 13.2983 41.9337 13.3597L38.882 16.3844C39.3279 17.5412 39.4357 18.7991 39.1932 20.0139H31.5761C31.5761 20.0139 30.1661 12.5068 25.4725 11.9261C22.9457 11.6115 21.0597 13.396 19.7719 15.3318C19.505 15.7346 19.2625 16.1527 19.0455 16.584C19.0455 16.584 12.8077 27.8296 12.8138 27.8296L12.2462 28.7914C12.1975 28.8607 12.1723 28.9434 12.174 29.0278C12.1758 29.1123 12.2045 29.1939 12.2561 29.2611C12.3076 29.3283 12.3793 29.3776 12.4609 29.4019C12.5425 29.4262 12.6297 29.4242 12.7101 29.3963L17.8187 28.126C17.9208 28.0923 18.0073 28.0237 18.0629 27.9324L19.2531 25.8152L20.3456 23.8491C20.4088 24.1799 20.5715 24.484 20.8122 24.7215C21.0529 24.959 21.3605 25.1188 21.6945 25.18H29.7816L29.7206 25.1437L29.9281 25.18H39.9013C41.0792 25.1497 42.2755 24.0427 42.5624 22.603C42.6661 22.9357 43.1361 25.2042 45.0038 25.18H48.6049C48.6752 25.1952 48.7481 25.1952 48.8185 25.18C49.6058 25.0348 50.0392 24.1335 50.1124 23.5951C50.1124 23.5951 50.5458 25.1497 51.6627 25.2042H64.6083C64.8512 25.1937 65.0925 25.1592 65.3285 25.1013C65.8723 24.8207 66.3496 24.4285 66.7284 23.9508C67.1073 23.4731 67.3791 22.9208 67.5258 22.3308C67.5258 22.3308 67.6539 25.0408 70.2418 25.2042H85.8302L88.4791 20.4979C88.5012 19.6538 88.446 18.8095 88.3143 17.9753M28.3046 20.4192H21.5297C21.5724 20.1772 21.6456 19.8869 21.6823 19.6631C22.0118 18.0116 23.1654 16.3662 24.9049 16.3662C26.6444 16.3662 28.0116 18.0237 28.2741 19.6631C28.3036 19.9163 28.3036 20.172 28.2741 20.4253M59.3471 19.8929H52.3952C52.3952 19.6631 52.4867 19.3364 52.5172 19.1489C52.8224 17.4732 54.1774 15.973 55.8742 15.973C56.7465 16.0027 57.5794 16.3402 58.2229 16.9247C58.8663 17.5092 59.278 18.3023 59.3837 19.161C59.4114 19.4062 59.4114 19.6537 59.3837 19.899M84.8659 19.5118L74.4227 19.3969C74.4227 19.282 77.4318 15.5496 80.0746 15.4528C82.7174 15.356 84.9025 16.8199 84.9574 18.7133C84.9638 18.9836 84.9267 19.2531 84.8476 19.5118" fill="white"/>
</svg>
