<svg width="164" height="102" viewBox="0 0 164 102" fill="none" xmlns="http://www.w3.org/2000/svg">
<g clip-path="url(#clip0_46_899)">
<path d="M24.3201 91C24.4344 91.177 24.5316 91.3645 24.6101 91.56C24.6855 91.7782 24.7424 92.0023 24.7801 92.23C24.7974 92.5098 24.7974 92.7903 24.7801 93.07C24.7804 93.2873 24.7466 93.5032 24.6801 93.71C24.6109 93.9303 24.5098 94.1392 24.3801 94.33C24.2403 94.5303 24.0718 94.7088 23.8801 94.86C23.6671 95.0243 23.4267 95.1496 23.1701 95.23C22.7661 95.3534 22.3555 95.4536 21.9401 95.53C21.4804 95.6177 21.0164 95.6811 20.5501 95.72C20.0401 95.72 19.4901 95.8 18.8901 95.82C18.2901 95.84 17.6101 95.82 16.8901 95.82C15.7224 95.8905 14.556 95.6634 13.5001 95.16C13.1312 94.9457 12.8292 94.6329 12.6279 94.2568C12.4266 93.8806 12.3338 93.4559 12.3601 93.03C12.3602 92.7399 12.3972 92.4509 12.4701 92.17C12.5289 91.919 12.6127 91.6745 12.7201 91.44C12.7952 91.2587 12.8926 91.0874 13.0101 90.93C13.1101 90.8 13.1901 90.74 13.2501 90.74C13.3101 90.74 13.5101 90.82 13.5101 90.99C13.5056 91.0541 13.485 91.1161 13.4501 91.17C13.4501 91.24 13.3701 91.33 13.3201 91.44C13.2701 91.55 13.2401 91.68 13.2001 91.82C13.1579 91.9765 13.1377 92.138 13.1401 92.3C13.1387 92.4725 13.1623 92.6443 13.2101 92.81C13.263 92.9841 13.3477 93.1469 13.4601 93.29C13.608 93.4549 13.7799 93.5965 13.9701 93.71C14.2375 93.8574 14.5233 93.9684 14.8201 94.04C15.2362 94.1504 15.6611 94.224 16.0901 94.26C16.6717 94.3159 17.2558 94.3426 17.8401 94.34H19.3701L20.8101 94.26C21.2701 94.26 21.7001 94.17 22.0901 94.12C22.4273 94.0704 22.7613 94.0002 23.0901 93.91C23.325 93.852 23.5506 93.7611 23.7601 93.64C23.8273 93.6122 23.8858 93.5669 23.9298 93.5089C23.9737 93.4509 24.0014 93.3823 24.0101 93.31C24.0185 93.2436 24.0185 93.1764 24.0101 93.11C23.9774 93.0153 23.9337 92.9247 23.8801 92.84C23.8016 92.7047 23.7148 92.5745 23.6201 92.45C23.5101 92.3 23.3701 92.11 23.1901 91.89L23.8901 90.43C24.0501 90.63 24.1901 90.81 24.3101 90.99M17.1401 89.29L16.1401 88.29L17.1401 87.29L18.1401 88.29L17.1401 89.29ZM19.2201 89.29L18.2201 88.29L19.2201 87.29L20.2201 88.29L19.2201 89.29Z" fill="#414042"/>
<path d="M29.3901 95.7301H29.0501C28.3488 95.7612 27.6587 95.5454 27.1001 95.1201C26.8401 94.9188 26.6368 94.6535 26.5101 94.3501C26.3792 94.0326 26.308 93.6936 26.3001 93.3501C26.3001 91.7001 26.2301 90.1401 26.1601 88.6601C26.0901 87.1801 25.9901 87.2401 25.8701 85.8901L26.9501 84.8901C27.0301 85.8001 27.0901 87.0601 27.1301 88.6601C27.1701 90.2601 27.1901 90.7401 27.2001 93.0301C27.2033 93.2411 27.2659 93.4469 27.3809 93.6239C27.4959 93.8008 27.6586 93.9416 27.8501 94.0301C28.1344 94.2105 28.4635 94.3075 28.8001 94.3101H29.3901C29.4901 94.3101 29.5401 94.4301 29.5401 94.6601V95.4401C29.5401 95.6801 29.4901 95.7901 29.3901 95.7901" fill="#414042"/>
<path d="M39.5199 92.2801C39.5021 92.7982 39.3414 93.3012 39.0555 93.7336C38.7696 94.166 38.3696 94.5109 37.8999 94.7301C36.6287 95.4415 35.1855 95.7876 33.7299 95.7301H29.2699C29.0299 95.7301 28.9099 95.6201 28.9099 95.3801V94.6001C28.9049 94.552 28.9109 94.5035 28.9274 94.4581C28.9439 94.4127 28.9705 94.3716 29.0051 94.3379C29.0398 94.3043 29.0816 94.2789 29.1274 94.2637C29.1733 94.2484 29.222 94.2438 29.2699 94.2501H30.6499C31.0699 94.2501 31.2699 94.1001 31.2699 93.8001V91.9001C31.2699 91.4101 31.2699 90.7901 31.1999 90.0401C31.1299 89.2901 31.0899 89.0401 30.9999 88.0401C31.0124 87.3662 30.935 86.6936 30.7699 86.0401C30.8193 85.9188 30.8944 85.8097 30.9899 85.7201L31.9099 84.8501L32.4899 86.5701C32.5681 86.7565 32.6251 86.951 32.6599 87.1501C32.6599 87.2501 32.4499 87.2301 32.0299 87.0801C32.0299 87.0801 32.0299 87.3201 32.0299 87.6601C32.0299 88.0001 32.0299 87.6601 32.0999 88.3201C32.1699 88.9801 32.0999 88.6501 32.0999 89.0001C32.0999 89.3501 32.0999 89.6101 32.0999 89.7801C32.0999 90.5701 32.0999 91.2801 32.0199 91.8901C31.9716 92.4211 31.8914 92.9487 31.7799 93.4701H31.8299C32.4499 92.8601 33.0199 92.3401 33.5299 91.9301C33.9917 91.5777 34.4836 91.2665 34.9999 91.0001C35.759 90.5455 36.6251 90.3005 37.5099 90.2901C37.7936 90.2868 38.0753 90.3378 38.3399 90.4401C38.5823 90.5308 38.8036 90.6704 38.9899 90.8501C39.1725 91.0322 39.3155 91.2501 39.4099 91.4901C39.5122 91.7512 39.5631 92.0297 39.5599 92.3101M38.6799 92.9301C38.6677 92.7495 38.6111 92.5747 38.5152 92.4212C38.4192 92.2677 38.2869 92.1402 38.1299 92.0501C37.9339 91.9166 37.7179 91.8153 37.4899 91.7501C37.2562 91.6813 37.0135 91.6476 36.7699 91.6501C36.0268 91.6912 35.3039 91.907 34.6599 92.2801C34.0058 92.6231 33.3863 93.0283 32.8099 93.4901C32.2799 93.8901 32.0199 94.1301 32.0199 94.1901C32.0199 94.2501 32.2099 94.4101 32.5999 94.4101C36.6465 94.4101 38.6732 93.9168 38.6799 92.9301Z" fill="#414042"/>
<path d="M44.06 95.7301H43.73C43.0118 95.7732 42.302 95.5567 41.73 95.1201C41.4731 94.9158 41.2705 94.6513 41.14 94.3501C41.0177 94.03 40.9468 93.6925 40.93 93.3501C40.93 91.7001 40.87 91.6101 40.79 90.1301C40.71 88.6501 40.62 87.2401 40.51 85.8901L41.58 84.8901C41.66 85.8001 41.73 87.0601 41.76 88.6601C41.79 90.2601 41.82 90.7401 41.84 93.0301C41.8411 93.2403 41.9018 93.4459 42.0151 93.6229C42.1284 93.7999 42.2896 93.9411 42.48 94.0301C42.7643 94.2105 43.0934 94.3075 43.43 94.3101H44.02C44.12 94.3101 44.17 94.4301 44.17 94.6601V95.4401C44.17 95.6801 44.12 95.7901 44.02 95.7901" fill="#414042"/>
<path d="M46.7101 95.7298H44.0001C43.7601 95.7298 43.6401 95.6198 43.6401 95.3798V94.5998C43.6352 94.5517 43.6412 94.5032 43.6577 94.4578C43.6742 94.4124 43.7007 94.3713 43.7354 94.3376C43.77 94.304 43.8118 94.2786 43.8577 94.2634C43.9035 94.2481 43.9522 94.2435 44.0001 94.2498H46.7601C46.8901 94.2498 46.9501 94.3698 46.9501 94.5998V95.3798C46.9501 95.6198 46.8901 95.7298 46.7601 95.7298" fill="#414042"/>
<path d="M52.8999 95.73H52.6599C52.3569 95.7475 52.053 95.7475 51.7499 95.73C51.5227 95.7043 51.3023 95.6365 51.0999 95.53C50.6492 95.3395 50.2904 94.9808 50.0999 94.53C49.975 94.7707 49.8024 94.9834 49.5927 95.1553C49.383 95.3273 49.1405 95.4547 48.8799 95.53C48.5973 95.637 48.3011 95.7043 47.9999 95.73C47.6599 95.73 47.2599 95.73 46.7999 95.73H46.5699C46.522 95.7389 46.4727 95.7361 46.4261 95.7216C46.3795 95.7072 46.3372 95.6817 46.3027 95.6472C46.2682 95.6127 46.2427 95.5704 46.2283 95.5238C46.2139 95.4773 46.211 95.4279 46.2199 95.38V94.6C46.2133 94.5525 46.2178 94.504 46.233 94.4585C46.2482 94.4131 46.2738 94.3717 46.3077 94.3378C46.3417 94.3038 46.383 94.2783 46.4285 94.263C46.474 94.2478 46.5224 94.2433 46.5699 94.25H47.9999C49.0999 94.25 49.7299 93.58 49.8799 92.25C49.8799 92.07 49.9699 91.98 50.1299 91.98C50.2899 91.98 50.3699 92.07 50.3699 92.25C50.5199 93.6 51.1499 94.25 52.2499 94.25H52.8899C52.9999 94.25 53.0599 94.37 53.0599 94.6V95.38C53.0599 95.62 52.9999 95.73 52.8899 95.73M48.2399 99.58L47.2399 98.58L48.2399 97.51L49.2399 98.58L48.2399 99.58Z" fill="#414042"/>
<path d="M56.6201 92.9998C56.6657 93.3995 56.613 93.8043 56.4667 94.179C56.3203 94.5537 56.0846 94.887 55.7801 95.1498C54.9895 95.5836 54.0887 95.7749 53.1901 95.6998H52.8001C52.5601 95.6998 52.4401 95.5898 52.4401 95.3498V94.5998C52.4351 94.5518 52.4411 94.5032 52.4576 94.4578C52.4741 94.4124 52.5007 94.3713 52.5353 94.3377C52.5699 94.304 52.6118 94.2786 52.6576 94.2634C52.7035 94.2482 52.7522 94.2435 52.8001 94.2498H53.0001C54.8801 94.2498 55.8201 94.0198 55.8201 93.5698C55.7493 92.9026 55.4611 92.2772 55.0001 91.7898L55.6801 90.2898C56.2693 91.0725 56.5981 92.0204 56.6201 92.9998ZM52.5601 88.8198L51.5601 87.8198L52.5601 86.8198L53.5601 87.8198L52.5601 88.8198ZM54.6401 88.8198L53.6401 87.8198L54.6401 86.8198L55.6401 87.8198L54.6401 88.8198Z" fill="#414042"/>
<path d="M60.06 95.53C60.0265 96.6434 59.657 97.7206 59 98.62C58.31 99.62 57.73 100.15 57.24 100.15C55.24 100.15 54.24 100.07 54.24 99.91C54.24 99.83 54.45 99.74 54.86 99.65C55.3392 99.5196 55.7997 99.328 56.23 99.08C56.738 98.789 57.2198 98.4544 57.67 98.08C58.81 97.08 59.37 96.19 59.37 95.38C59.2085 94.4499 58.7232 93.6068 58 93C58.1277 92.4835 58.337 91.9906 58.62 91.54C58.87 91.89 59.08 92.21 59.25 92.54C59.4008 92.7751 59.5313 93.0227 59.64 93.28C59.7963 93.613 59.917 93.9617 60 94.32C60.0736 94.7192 60.1104 95.1242 60.11 95.53" fill="#414042"/>
<path d="M62.3199 94.41C62.2657 94.7201 62.1957 95.0272 62.1099 95.33C61.9399 95.87 61.7999 96.14 61.6999 96.14C61.5809 95.5272 61.5207 94.9043 61.5199 94.28L60.9299 86L62.1699 84.79L62.3699 93.5C62.3995 93.7926 62.3995 94.0874 62.3699 94.38" fill="#414042"/>
<path d="M70.35 95.07C70.3462 96.4596 69.9548 97.8206 69.22 99C68.98 99.38 68.77 99.69 68.58 100C68.4232 100.205 68.2419 100.39 68.04 100.55C67.7452 100.746 67.393 100.838 67.04 100.81H66.27L65.42 100.74C64.78 100.68 64.79 100.61 64.79 100.53C64.79 100.45 64.56 100.4 64.79 100.35C66.0424 100.024 67.1894 99.3795 68.12 98.48C68.6138 98.0256 69.0323 97.4956 69.36 96.91C69.5348 96.6024 69.6438 96.2619 69.68 95.91V95.75H69.16H68.42C68.0579 95.755 67.6962 95.7249 67.34 95.66C67.0782 95.6182 66.829 95.5192 66.61 95.37C66.4293 95.2431 66.2901 95.0657 66.21 94.86C66.1204 94.6133 66.0764 94.3524 66.08 94.09C66.0809 93.7189 66.1279 93.3494 66.22 92.99C66.3223 92.6192 66.4561 92.2579 66.62 91.91C66.8014 91.5703 67.0418 91.2655 67.33 91.01C67.5632 90.8162 67.8568 90.7101 68.16 90.71C68.5167 90.7348 68.8583 90.8635 69.1427 91.0803C69.427 91.2972 69.6416 91.5925 69.76 91.93C69.981 92.3769 70.1423 92.851 70.24 93.34C70.3452 93.9172 70.3954 94.5032 70.39 95.09M69.49 94.27C69.4857 94.0343 69.4417 93.801 69.36 93.58C69.2697 93.3388 69.1487 93.1102 69 92.9C68.9064 92.7053 68.7661 92.5367 68.5916 92.4094C68.4172 92.282 68.2139 92.1998 68 92.17C67.8519 92.1699 67.7055 92.2005 67.57 92.26C67.4362 92.3116 67.3163 92.3938 67.22 92.5C67.0076 92.716 66.889 93.007 66.89 93.31C66.89 93.94 67.41 94.25 68.46 94.25L69.49 94.27Z" fill="#414042"/>
<path d="M80.3399 95.3798C80.3399 95.6198 80.3399 95.7298 80.1799 95.7298H79.9299C79.6488 95.7559 79.3653 95.7221 79.0982 95.6308C78.831 95.5394 78.5863 95.3925 78.3799 95.1998C78.0433 94.746 77.8329 94.2112 77.7699 93.6498L76.6799 94.6498H76.1999H75.6299C74.1699 94.6498 73.4399 94.2898 73.4399 93.5898C73.4397 93.3943 73.4632 93.1996 73.5099 93.0098C73.5555 92.786 73.6259 92.5679 73.7199 92.3598C73.8751 91.9649 74.1342 91.6193 74.4699 91.3598C74.8314 91.0936 75.2087 90.8498 75.5999 90.6298C76.0099 90.3998 76.4599 90.1698 76.9299 89.9398L76.6599 88.7198L77.4699 87.7798L78.4699 92.6198C78.518 92.8917 78.5883 93.1593 78.6799 93.4198C78.7496 93.5955 78.8439 93.7605 78.9599 93.9098C79.0668 94.0201 79.1964 94.1058 79.3397 94.1611C79.4831 94.2163 79.6367 94.2398 79.7899 94.2298H80.1499C80.2599 94.2298 80.3099 94.3498 80.3099 94.5798L80.3399 95.3798ZM77.1299 90.9998C76.7231 91.1173 76.3254 91.2643 75.9399 91.4398C75.5932 91.59 75.2589 91.7672 74.9399 91.9698C74.4499 92.2898 74.2099 92.5198 74.2099 92.6498C74.2099 93.0798 74.9299 93.2998 76.3599 93.2998C76.7898 93.3101 77.2194 93.2698 77.6399 93.1798L77.1299 90.9998Z" fill="#414042"/>
<path d="M85.5199 92.9999C85.5656 93.3996 85.5129 93.8044 85.3665 94.1791C85.2201 94.5538 84.9844 94.8871 84.6799 95.1499C84.1599 95.5199 81.6799 95.6999 80.4599 95.6999H80.0699C79.8299 95.6999 79.7099 95.5899 79.7099 95.3499V94.5999C79.705 94.5519 79.711 94.5033 79.7275 94.4579C79.744 94.4125 79.7706 94.3715 79.8052 94.3378C79.8398 94.3041 79.8816 94.2787 79.9275 94.2635C79.9733 94.2483 80.022 94.2436 80.0699 94.2499H81.9199C83.8099 94.2499 84.7499 94.0199 84.7499 93.5599C84.6687 92.8926 84.37 92.2705 83.8999 91.7899L84.5799 90.2799C85.1682 91.067 85.4967 92.0176 85.5199 92.9999ZM81.9999 88.8099L80.9999 87.7499L81.9999 86.6899L82.9999 87.7499L81.9999 88.8099Z" fill="#414042"/>
<path d="M89.9301 95.7301H89.5901C88.8719 95.7732 88.1621 95.5567 87.5901 95.1201C87.3369 94.9145 87.1378 94.6502 87.0101 94.3501C86.8792 94.0325 86.808 93.6935 86.8001 93.3501C86.8001 91.7001 86.7301 91.2801 86.6601 89.8101C86.5901 88.3401 86.4901 86.9101 86.3701 85.5601L87.4401 84.5601C87.5301 85.4701 87.5901 86.7201 87.6301 88.3201C87.6701 89.9201 87.6901 90.7301 87.7001 93.0201C87.7033 93.231 87.7659 93.4369 87.8809 93.6138C87.9959 93.7907 88.1586 93.9315 88.3501 94.0201C88.6308 94.2001 88.9567 94.2971 89.2901 94.3001H89.8901C89.9901 94.3001 90.0401 94.4201 90.0401 94.6501V95.4301C90.0401 95.6701 90.0401 95.7801 89.8901 95.7801" fill="#414042"/>
<path d="M93.5499 95.7298H89.8099C89.5699 95.7298 89.4499 95.6198 89.4499 95.3798V94.5998C89.445 94.5517 89.451 94.5032 89.4675 94.4578C89.484 94.4124 89.5105 94.3713 89.5452 94.3376C89.5798 94.304 89.6216 94.2786 89.6675 94.2634C89.7133 94.2481 89.762 94.2435 89.8099 94.2498H93.5499C93.6699 94.2498 93.7299 94.3698 93.7299 94.5998V95.3798C93.7299 95.6198 93.6699 95.7298 93.5499 95.7298Z" fill="#414042"/>
<path d="M104.34 93.0001C104.38 93.6916 104.175 94.3752 103.76 94.9301C103.523 95.1917 103.23 95.3967 102.903 95.5299C102.576 95.6632 102.223 95.7213 101.87 95.7001C101.499 95.7013 101.136 95.589 100.83 95.3781C100.525 95.1671 100.291 94.8677 100.16 94.5201C99.9664 94.8807 99.6776 95.1814 99.325 95.3895C98.9723 95.5975 98.5695 95.7049 98.1601 95.7001C97.8468 95.6973 97.5424 95.5958 97.2901 95.4101C96.9767 95.1648 96.7121 94.8629 96.5101 94.5201C96.1758 94.9285 95.7471 95.2494 95.261 95.455C94.7749 95.6606 94.246 95.7447 93.7201 95.7001H93.5001C93.2601 95.7001 93.1401 95.5901 93.1401 95.3501V94.6001C93.1352 94.552 93.1412 94.5035 93.1577 94.4581C93.1742 94.4127 93.2007 94.3716 93.2354 94.3379C93.27 94.3042 93.3118 94.2788 93.3577 94.2636C93.4035 94.2484 93.4522 94.2438 93.5001 94.2501H94.0001C95.5101 94.2501 96.2601 93.6601 96.2601 92.4701C96.2601 92.3001 96.3401 92.2101 96.5101 92.2101C96.6801 92.2101 96.7401 92.3001 96.7401 92.4701C96.7401 93.6601 97.2801 94.2501 98.3701 94.2501C99.4601 94.2501 99.9901 93.6601 99.9901 92.4701C99.9901 92.3001 100.07 92.2101 100.23 92.2101C100.39 92.2101 100.46 92.3001 100.46 92.4701C100.449 92.8715 100.546 93.2686 100.74 93.6201C100.848 93.8205 101.01 93.9861 101.209 94.0976C101.407 94.2092 101.633 94.262 101.86 94.2501C102.09 94.2664 102.32 94.2664 102.55 94.2501C102.753 94.216 102.951 94.159 103.14 94.0801C103.46 93.9201 103.62 93.7701 103.62 93.6201C103.562 92.9412 103.256 92.3074 102.76 91.8401L103.46 90.3301C104.042 91.1312 104.366 92.0903 104.39 93.0801" fill="#414042"/>
<path d="M107.52 95.6402C107.473 96.7608 107.082 97.8397 106.4 98.7302C105.72 99.7302 105.13 100.26 104.64 100.26C102.64 100.26 101.64 100.18 101.64 100.01C101.64 99.8402 101.85 99.8502 102.26 99.7602C102.737 99.6276 103.194 99.4326 103.62 99.1802C104.134 98.8934 104.619 98.5586 105.07 98.1802C105.523 97.8709 105.908 97.4715 106.201 97.007C106.493 96.5425 106.687 96.0228 106.77 95.4802C106.596 94.5767 106.115 93.7609 105.41 93.1702C105.47 92.9143 105.55 92.6635 105.65 92.4202C105.755 92.1714 105.879 91.9307 106.02 91.7002C106.28 92.0602 106.49 92.3802 106.66 92.7002C106.807 92.9376 106.937 93.1849 107.05 93.4402C107.188 93.7867 107.295 94.1448 107.37 94.5102C107.443 94.9093 107.48 95.3144 107.48 95.7202" fill="#414042"/>
<path d="M122.23 92.06C122.23 92.2 122.23 92.26 122.08 92.26C121.93 92.26 122.08 92.26 121.96 92.21L121.53 92.02C121.341 91.9478 121.147 91.8877 120.95 91.84C120.757 91.7921 120.559 91.7686 120.36 91.77C119.505 91.8085 118.696 92.1652 118.09 92.77C117.546 93.1788 117.187 93.7865 117.09 94.46C117.09 94.82 117.51 95.09 118.34 95.26L120.1 95.63C120.466 95.6658 120.814 95.8084 121.1 96.04C121.272 96.2391 121.358 96.4978 121.34 96.76C121.387 97.4924 121.188 98.2195 120.775 98.8262C120.362 99.4329 119.759 99.8846 119.06 100.11C117.635 100.682 116.116 100.984 114.58 101C113.515 101.061 112.459 100.765 111.58 100.16C111.134 99.8053 110.781 99.346 110.555 98.8227C110.328 98.2995 110.234 97.7284 110.28 97.16C110.267 96.2889 110.455 95.4265 110.83 94.64C111.15 94.02 111.42 93.7 111.65 93.7C111.677 93.6968 111.705 93.6997 111.73 93.7087C111.756 93.7176 111.779 93.7322 111.799 93.7515C111.818 93.7707 111.833 93.7941 111.841 93.8198C111.85 93.8455 111.853 93.873 111.85 93.9C111.85 93.9 111.74 94.14 111.51 94.66C111.285 95.1704 111.169 95.7222 111.17 96.28C111.17 98.34 112.42 99.37 114.92 99.37C116.141 99.358 117.353 99.1694 118.52 98.81C119.87 98.43 120.52 98.02 120.52 97.57C120.53 97.468 120.509 97.3653 120.459 97.2759C120.409 97.1865 120.332 97.1146 120.24 97.07C120.046 96.9974 119.845 96.9438 119.64 96.91L117.37 96.42C117.176 96.3819 116.986 96.3284 116.8 96.26C116.685 96.2192 116.579 96.1545 116.49 96.07C116.384 95.9573 116.304 95.8228 116.256 95.676C116.208 95.5292 116.192 95.3735 116.21 95.22C116.315 94.1133 116.759 93.0658 117.48 92.22C118.48 90.91 119.48 90.22 120.48 90.22C120.726 90.2158 120.971 90.2599 121.2 90.35C121.43 90.4503 121.635 90.6006 121.8 90.79C122.1 91.1188 122.27 91.5451 122.28 91.99" fill="#414042"/>
<path d="M126.32 95.7498C126.272 96.8686 125.885 97.9462 125.21 98.8398C124.53 99.8398 123.94 100.37 123.45 100.37C121.45 100.37 120.45 100.29 120.45 100.12C120.45 99.9498 120.65 99.9598 121.06 99.8598C121.541 99.7355 122.003 99.5436 122.43 99.2898C122.943 99.0025 123.429 98.6677 123.88 98.2898C124.332 97.9816 124.717 97.5839 125.009 97.1212C125.301 96.6585 125.496 96.1407 125.58 95.5998C125.401 94.6928 124.918 93.8741 124.21 93.2798C124.269 93.0256 124.353 92.7777 124.46 92.5398C124.559 92.2882 124.683 92.047 124.83 91.8198C125.08 92.1798 125.29 92.4998 125.46 92.8198C125.609 93.0561 125.739 93.3035 125.85 93.5598C125.993 93.9047 126.1 94.2632 126.17 94.6298C126.244 95.0289 126.281 95.434 126.28 95.8398" fill="#414042"/>
<path d="M131.89 95.07C131.886 96.4596 131.495 97.8206 130.76 99C130.52 99.38 130.31 99.69 130.11 100C129.959 100.207 129.781 100.392 129.58 100.55C129.285 100.746 128.933 100.838 128.58 100.81H127.81L126.96 100.74C126.293 100.68 125.96 100.61 125.96 100.53C125.96 100.46 126.06 100.4 126.24 100.35C127.492 100.024 128.639 99.3795 129.57 98.48C130.064 98.0282 130.479 97.4976 130.8 96.91C130.981 96.6046 131.094 96.2633 131.13 95.91V95.75H130.61H129.87C129.508 95.7555 129.146 95.7253 128.79 95.66C128.528 95.6182 128.279 95.5192 128.06 95.37C127.879 95.2431 127.74 95.0657 127.66 94.86C127.57 94.6133 127.526 94.3524 127.53 94.09C127.531 93.7189 127.578 93.3494 127.67 92.99C127.772 92.6192 127.906 92.2579 128.07 91.91C128.248 91.568 128.489 91.2627 128.78 91.01C129.013 90.8162 129.307 90.7101 129.61 90.71C129.967 90.7348 130.308 90.8635 130.593 91.0803C130.877 91.2972 131.092 91.5925 131.21 91.93C131.432 92.3756 131.59 92.8502 131.68 93.34C131.794 93.9162 131.847 94.5027 131.84 95.09M130.94 94.27C130.936 94.0343 130.892 93.801 130.81 93.58C130.724 93.3467 130.61 93.125 130.47 92.92C130.376 92.7253 130.236 92.5567 130.062 92.4294C129.887 92.302 129.684 92.2198 129.47 92.19C129.322 92.1899 129.176 92.2205 129.04 92.28C128.905 92.3291 128.784 92.4117 128.69 92.52C128.478 92.736 128.359 93.027 128.36 93.33C128.36 93.96 128.88 94.27 129.93 94.27H130.94Z" fill="#414042"/>
<path d="M136.16 95.7301H135.82C135.102 95.7732 134.392 95.5567 133.82 95.1201C133.567 94.9146 133.368 94.6503 133.24 94.3501C133.109 94.0326 133.038 93.6936 133.03 93.3501C133.03 91.7001 132.96 90.6301 132.89 89.1501C132.82 87.6701 132.72 87.2401 132.6 85.8901L133.67 84.8901C133.783 85.8161 133.847 86.7474 133.86 87.6801C133.86 89.2801 133.92 90.7401 133.93 93.0301C133.933 93.2411 133.996 93.4469 134.111 93.6239C134.226 93.8008 134.389 93.9416 134.58 94.0301C134.861 94.2102 135.187 94.3072 135.52 94.3101H136.12C136.22 94.3101 136.27 94.4301 136.27 94.6601V95.4401C136.27 95.6801 136.22 95.7901 136.12 95.7901" fill="#414042"/>
<path d="M138.14 95.7298H136C135.76 95.7298 135.64 95.6198 135.64 95.3798V94.5998C135.635 94.5517 135.641 94.5032 135.658 94.4578C135.674 94.4124 135.701 94.3713 135.735 94.3376C135.77 94.304 135.812 94.2786 135.858 94.2634C135.904 94.2481 135.952 94.2435 136 94.2498H138.1C138.23 94.2498 138.29 94.3698 138.29 94.5998V95.3798C138.29 95.6198 138.23 95.7298 138.1 95.7298" fill="#414042"/>
<path d="M139.8 95.7301H138.05C138.003 95.7367 137.954 95.7323 137.909 95.717C137.863 95.7018 137.822 95.6762 137.788 95.6423C137.754 95.6083 137.728 95.567 137.713 95.5215C137.698 95.476 137.693 95.4276 137.7 95.3801V94.6001C137.693 94.5525 137.698 94.5041 137.713 94.4586C137.728 94.4131 137.754 94.3718 137.788 94.3379C137.822 94.3039 137.863 94.2783 137.909 94.2631C137.954 94.2479 138.003 94.2434 138.05 94.2501H139.8C139.93 94.2501 139.99 94.3701 139.99 94.6001V95.3801C139.99 95.6201 139.93 95.7301 139.8 95.7301Z" fill="#414042"/>
<path d="M146 95.7298H145.76C145.457 95.7473 145.153 95.7473 144.85 95.7298C144.623 95.7041 144.402 95.6362 144.2 95.5298C143.768 95.3288 143.429 94.9714 143.25 94.5298C143.125 94.7704 142.953 94.9832 142.743 95.1551C142.533 95.327 142.291 95.4545 142.03 95.5298C141.747 95.6368 141.451 95.7041 141.15 95.7298C140.81 95.7298 140.41 95.7298 139.95 95.7298H139.72C139.672 95.7387 139.623 95.7359 139.576 95.7214C139.53 95.707 139.487 95.6815 139.453 95.647C139.418 95.6125 139.393 95.5702 139.378 95.5236C139.364 95.4771 139.361 95.4277 139.37 95.3798V94.5998C139.363 94.5522 139.368 94.5038 139.383 94.4583C139.398 94.4128 139.424 94.3715 139.458 94.3376C139.492 94.3036 139.533 94.278 139.579 94.2628C139.624 94.2476 139.673 94.2431 139.72 94.2498H141.1C142.21 94.2498 142.84 93.5798 142.99 92.2498C142.99 92.0698 143.08 91.9798 143.24 91.9798C143.4 91.9798 143.48 92.0698 143.48 92.2498C143.63 93.5998 144.26 94.2498 145.36 94.2498H146C146.11 94.2498 146.16 94.3698 146.16 94.5998V95.3798C146.16 95.6198 146.11 95.7298 146 95.7298ZM139.58 89.6298L138.58 88.5698L139.58 87.5098L140.58 88.5698L139.58 89.6298Z" fill="#414042"/>
<path d="M151.43 92.4101C151.482 92.912 151.396 93.4185 151.181 93.875C150.966 94.3314 150.63 94.7205 150.21 95.0001C148.93 95.5961 147.518 95.8543 146.11 95.7501H145.89C145.65 95.7501 145.53 95.6401 145.53 95.4001V94.6001C145.525 94.5521 145.531 94.5035 145.548 94.4581C145.564 94.4127 145.591 94.3716 145.625 94.338C145.66 94.3043 145.702 94.2789 145.748 94.2637C145.793 94.2485 145.842 94.2438 145.89 94.2501H147C149.54 94.2501 150.82 93.7801 150.82 92.8501C150.828 92.6671 150.79 92.4849 150.71 92.3201C150.137 92.5408 149.522 92.6297 148.91 92.5801C147.67 92.5801 147.06 92.1101 147.06 91.1601C147.058 90.8237 147.095 90.4882 147.17 90.1601C147.246 89.8153 147.36 89.4799 147.51 89.1601C147.89 88.2501 148.4 87.7901 149.04 87.7901C149.455 87.805 149.855 87.9487 150.185 88.2014C150.515 88.454 150.758 88.8031 150.88 89.2001C151.082 89.6599 151.223 90.144 151.3 90.6401C151.402 91.2447 151.449 91.8572 151.44 92.4701M147.17 87.2001L146.17 86.2001L147.17 85.1401L148.17 86.2001L147.17 87.2001ZM150.45 90.9501C150.385 90.5394 150.201 90.1569 149.92 89.8501C149.802 89.6761 149.645 89.5326 149.46 89.4317C149.276 89.3309 149.07 89.2754 148.86 89.2701C148.726 89.2704 148.593 89.2976 148.47 89.3501C148.346 89.4007 148.234 89.4755 148.14 89.5701C148.046 89.6614 147.972 89.7701 147.92 89.8901C147.86 90.0112 147.829 90.1449 147.83 90.2801C147.83 90.8701 148.28 91.1601 149.17 91.1601C149.607 91.1843 150.044 91.1126 150.45 90.9501Z" fill="#414042"/>
<path d="M158.17 0H5.67C4.16622 0 2.72404 0.597373 1.6607 1.6607C0.597373 2.72404 0 4.16622 0 5.67L0 63.76C0 65.2638 0.597373 66.706 1.6607 67.7693C2.72404 68.8326 4.16622 69.43 5.67 69.43H158.17C159.674 69.43 161.116 68.8326 162.179 67.7693C163.243 66.706 163.84 65.2638 163.84 63.76V5.67C163.84 4.16622 163.243 2.72404 162.179 1.6607C161.116 0.597373 159.674 0 158.17 0Z" fill="#ED1C24"/>
<path d="M62.7001 47.7101C62.607 47.6148 62.4957 47.5391 62.373 47.4875C62.2502 47.4358 62.1183 47.4092 61.9851 47.4092C61.8519 47.4092 61.72 47.4358 61.5972 47.4875C61.4744 47.5391 61.3632 47.6148 61.2701 47.7101L57.7401 51.2001C57.7167 51.2276 57.6966 51.2578 57.6801 51.2901L57.6101 51.2001L54.0801 47.7101C53.987 47.6148 53.8757 47.5391 53.753 47.4875C53.6302 47.4358 53.4983 47.4092 53.3651 47.4092C53.2319 47.4092 53.1 47.4358 52.9772 47.4875C52.8544 47.5391 52.7432 47.6148 52.6501 47.7101L49.1201 51.2001C49.0217 51.2935 48.9434 51.4059 48.8899 51.5306C48.8364 51.6552 48.8088 51.7894 48.8088 51.9251C48.8088 52.0607 48.8364 52.1949 48.8899 52.3195C48.9434 52.4442 49.0217 52.5566 49.1201 52.6501L52.6501 56.1301C52.7432 56.2253 52.8544 56.301 52.9772 56.3526C53.1 56.4043 53.2319 56.4309 53.3651 56.4309C53.4983 56.4309 53.6302 56.4043 53.753 56.3526C53.8757 56.301 53.987 56.2253 54.0801 56.1301L57.6101 52.6501C57.6101 52.6501 57.6101 52.5801 57.6801 52.5501C57.6963 52.5855 57.7165 52.619 57.7401 52.6501L61.2701 56.1301C61.3632 56.2253 61.4744 56.301 61.5972 56.3526C61.72 56.4043 61.8519 56.4309 61.9851 56.4309C62.1183 56.4309 62.2502 56.4043 62.373 56.3526C62.4957 56.301 62.607 56.2253 62.7001 56.1301L66.2301 52.6501C66.3284 52.5566 66.4067 52.4442 66.4602 52.3195C66.5137 52.1949 66.5413 52.0607 66.5413 51.9251C66.5413 51.7894 66.5137 51.6552 66.4602 51.5306C66.4067 51.4059 66.3284 51.2935 66.2301 51.2001L62.7001 47.7101Z" fill="white"/>
<path d="M144.15 31.7902C143.906 29.0921 142.801 26.5437 141 24.5202C140.798 24.2887 140.574 24.0776 140.33 23.8902C138.33 22.1802 135.33 21.0602 130.82 21.5202C130.82 21.5202 122.91 22.1602 116.02 34.1202H113.9C112.55 34.1202 112.14 31.1202 111.66 30.2402C111.595 30.1188 111.502 30.0148 111.388 29.9373C111.275 29.8599 111.144 29.8112 111.007 29.7954C110.87 29.7797 110.732 29.7974 110.603 29.847C110.475 29.8966 110.361 29.9766 110.27 30.0802C109.936 30.5137 109.685 31.0053 109.53 31.5302C109.276 32.0912 108.939 32.6104 108.53 33.0702C108.35 33.2902 108.16 33.5102 107.96 33.7202C107.438 34.2201 106.743 34.4995 106.02 34.5002H102.24C102.24 34.5002 101.1 26.5002 95.24 23.0502C94.0326 22.3539 92.6753 21.9585 91.2828 21.8976C89.8903 21.8367 88.5036 22.112 87.24 22.7002C84.37 24.3102 80.62 27.4602 79.7 34.8802H71.7C72.0402 31.2744 71.3464 27.6462 69.7 24.4202C69.6236 24.2921 69.5195 24.1827 69.3954 24.1001C69.2713 24.0174 69.1302 23.9635 68.9825 23.9425C68.8349 23.9214 68.6844 23.9336 68.5421 23.9782C68.3998 24.0228 68.2692 24.0986 68.16 24.2002L63.16 29.2002C63.8906 31.1125 64.0673 33.192 63.67 35.2002H51.19C51.19 35.2002 48.88 22.7902 41.19 21.8302C37.05 21.3102 33.96 24.2602 31.85 27.4602C31.4128 28.1261 31.0155 28.8173 30.66 29.5302C30.66 29.5302 20.44 48.1202 20.45 48.1202L19.52 49.7102C19.4403 49.8247 19.3989 49.9616 19.4018 50.1011C19.4047 50.2406 19.4517 50.3757 19.5361 50.4868C19.6206 50.5979 19.7381 50.6794 19.8717 50.7195C20.0054 50.7597 20.1483 50.7564 20.28 50.7102L28.65 48.6102C28.8172 48.5546 28.959 48.4411 29.05 48.2902L31 44.7902L32.79 41.5402C32.8936 42.087 33.1601 42.5896 33.5545 42.9822C33.9489 43.3749 34.4528 43.6391 35 43.7402H48.25L48.15 43.6802L48.49 43.7402H64.83C66.76 43.6902 68.72 41.8602 69.19 39.4802C69.36 40.0302 70.13 43.7802 73.19 43.7402H79.09C79.2053 43.7654 79.3247 43.7654 79.44 43.7402C80.73 43.5002 81.44 42.0102 81.56 41.1202C81.56 41.1202 82.27 43.6902 84.1 43.7802H105.31C105.708 43.7629 106.103 43.7059 106.49 43.6102C107.382 43.1453 108.165 42.4954 108.785 41.7038C109.406 40.9123 109.851 39.9974 110.09 39.0202C110.09 39.0202 110.3 43.5102 114.54 43.7802H140.08L144.42 36.0002C144.456 34.6049 144.366 33.2092 144.15 31.8302M45.83 35.8702H34.73C34.8 35.4702 34.92 34.9902 34.98 34.6202C35.52 31.8902 37.41 29.1702 40.26 29.1702C43.11 29.1702 45.35 31.9102 45.78 34.6202C45.8285 35.0388 45.8285 35.4616 45.78 35.8802M96.69 35.0002H85.3C85.3 34.6202 85.45 34.0802 85.5 33.7702C86 31.0002 88.22 28.5202 91 28.5202C92.4292 28.5693 93.7939 29.1272 94.8482 30.0935C95.9024 31.0597 96.5769 32.3707 96.75 33.7902C96.7954 34.1956 96.7954 34.6048 96.75 35.0102M138.5 34.3702L121.39 34.1802C121.39 33.9902 126.32 27.8202 130.65 27.6602C134.98 27.5002 138.56 29.9202 138.65 33.0502C138.66 33.497 138.6 33.9426 138.47 34.3702" fill="white"/>
</g>
<defs>
<clipPath id="clip0_46_899">
<rect width="163.84" height="101.03" fill="white"/>
</clipPath>
</defs>
</svg>
