<svg width="164" height="70" viewBox="0 0 164 70" fill="none" xmlns="http://www.w3.org/2000/svg">
<g clip-path="url(#clip0_46_983)">
<path d="M158.17 0H5.67C4.16622 0 2.72404 0.597373 1.6607 1.6607C0.597373 2.72404 0 4.16622 0 5.67L0 63.76C0 65.2638 0.597373 66.706 1.6607 67.7693C2.72404 68.8326 4.16622 69.43 5.67 69.43H158.17C159.674 69.43 161.116 68.8326 162.179 67.7693C163.243 66.706 163.84 65.2638 163.84 63.76V5.67C163.84 4.16622 163.243 2.72404 162.179 1.6607C161.116 0.597373 159.674 0 158.17 0Z" fill="#414042"/>
<path d="M62.7001 47.7101C62.607 47.6148 62.4957 47.5391 62.373 47.4875C62.2502 47.4358 62.1183 47.4092 61.9851 47.4092C61.8519 47.4092 61.72 47.4358 61.5972 47.4875C61.4744 47.5391 61.3632 47.6148 61.2701 47.7101L57.7401 51.2001C57.7167 51.2276 57.6966 51.2578 57.6801 51.2901L57.6101 51.2001L54.0801 47.7101C53.987 47.6148 53.8757 47.5391 53.753 47.4875C53.6302 47.4358 53.4983 47.4092 53.3651 47.4092C53.2319 47.4092 53.1 47.4358 52.9772 47.4875C52.8544 47.5391 52.7432 47.6148 52.6501 47.7101L49.1201 51.2001C49.0217 51.2935 48.9434 51.4059 48.8899 51.5306C48.8364 51.6552 48.8088 51.7894 48.8088 51.9251C48.8088 52.0607 48.8364 52.1949 48.8899 52.3195C48.9434 52.4442 49.0217 52.5566 49.1201 52.6501L52.6501 56.1301C52.7432 56.2253 52.8544 56.301 52.9772 56.3526C53.1 56.4043 53.2319 56.4309 53.3651 56.4309C53.4983 56.4309 53.6302 56.4043 53.753 56.3526C53.8757 56.301 53.987 56.2253 54.0801 56.1301L57.6101 52.6501C57.6101 52.6501 57.6101 52.5801 57.6801 52.5501C57.6963 52.5855 57.7165 52.619 57.7401 52.6501L61.2701 56.1301C61.3632 56.2253 61.4744 56.301 61.5972 56.3526C61.72 56.4043 61.8519 56.4309 61.9851 56.4309C62.1183 56.4309 62.2502 56.4043 62.373 56.3526C62.4957 56.301 62.607 56.2253 62.7001 56.1301L66.2301 52.6501C66.3284 52.5566 66.4067 52.4442 66.4602 52.3195C66.5137 52.1949 66.5413 52.0607 66.5413 51.9251C66.5413 51.7894 66.5137 51.6552 66.4602 51.5306C66.4067 51.4059 66.3284 51.2935 66.2301 51.2001L62.7001 47.7101Z" fill="white"/>
<path d="M144.15 31.7902C143.906 29.0921 142.801 26.5437 141 24.5202C140.798 24.2887 140.574 24.0776 140.33 23.8902C138.33 22.1802 135.33 21.0602 130.82 21.5202C130.82 21.5202 122.91 22.1602 116.02 34.1202H113.9C112.55 34.1202 112.14 31.1202 111.66 30.2402C111.595 30.1188 111.502 30.0148 111.388 29.9373C111.275 29.8599 111.144 29.8112 111.007 29.7954C110.87 29.7797 110.732 29.7974 110.603 29.847C110.475 29.8966 110.361 29.9766 110.27 30.0802C109.936 30.5137 109.685 31.0053 109.53 31.5302C109.276 32.0912 108.939 32.6104 108.53 33.0702C108.35 33.2902 108.16 33.5102 107.96 33.7202C107.438 34.2201 106.743 34.4995 106.02 34.5002H102.24C102.24 34.5002 101.1 26.5002 95.24 23.0502C94.0326 22.3539 92.6753 21.9585 91.2828 21.8976C89.8903 21.8367 88.5036 22.112 87.24 22.7002C84.37 24.3102 80.62 27.4602 79.7 34.8802H71.7C72.0402 31.2744 71.3464 27.6462 69.7 24.4202C69.6236 24.2921 69.5195 24.1827 69.3954 24.1001C69.2713 24.0174 69.1302 23.9635 68.9825 23.9425C68.8349 23.9214 68.6844 23.9336 68.5421 23.9782C68.3998 24.0228 68.2692 24.0986 68.16 24.2002L63.16 29.2002C63.8906 31.1125 64.0673 33.192 63.67 35.2002H51.19C51.19 35.2002 48.88 22.7902 41.19 21.8302C37.05 21.3102 33.96 24.2602 31.85 27.4602C31.4128 28.1261 31.0155 28.8173 30.66 29.5302C30.66 29.5302 20.44 48.1202 20.45 48.1202L19.52 49.7102C19.4403 49.8247 19.3989 49.9616 19.4018 50.1011C19.4047 50.2406 19.4517 50.3757 19.5361 50.4868C19.6206 50.5979 19.7381 50.6794 19.8717 50.7195C20.0054 50.7597 20.1483 50.7564 20.28 50.7102L28.65 48.6102C28.8172 48.5546 28.959 48.4411 29.05 48.2902L31 44.7902L32.79 41.5402C32.8936 42.087 33.1601 42.5896 33.5545 42.9822C33.9489 43.3749 34.4528 43.6391 35 43.7402H48.25L48.15 43.6802L48.49 43.7402H64.83C66.76 43.6902 68.72 41.8602 69.19 39.4802C69.36 40.0302 70.13 43.7802 73.19 43.7402H79.09C79.2053 43.7654 79.3247 43.7654 79.44 43.7402C80.73 43.5002 81.44 42.0102 81.56 41.1202C81.56 41.1202 82.27 43.6902 84.1 43.7802H105.31C105.708 43.7629 106.103 43.7059 106.49 43.6102C107.381 43.1464 108.163 42.498 108.784 41.7083C109.404 40.9185 109.85 40.0056 110.09 39.0302C110.09 39.0302 110.3 43.5102 114.54 43.7802H140.08L144.42 36.0002C144.456 34.6049 144.366 33.2092 144.15 31.8302M45.83 35.8702H34.73C34.8 35.4702 34.92 34.9902 34.98 34.6202C35.52 31.8902 37.41 29.1702 40.26 29.1702C43.11 29.1702 45.35 31.9102 45.78 34.6202C45.8285 35.0388 45.8285 35.4616 45.78 35.8802M96.69 35.0002H85.3C85.3 34.6202 85.45 34.0802 85.5 33.7702C86 31.0002 88.22 28.5202 91 28.5202C92.4292 28.5693 93.7939 29.1272 94.8482 30.0935C95.9024 31.0597 96.5769 32.3707 96.75 33.7902C96.7954 34.1956 96.7954 34.6048 96.75 35.0102M138.5 34.3702L121.39 34.1802C121.39 33.9902 126.32 27.8202 130.65 27.6602C134.98 27.5002 138.56 29.9202 138.65 33.0502C138.66 33.497 138.6 33.9426 138.47 34.3702" fill="white"/>
</g>
<defs>
<clipPath id="clip0_46_983">
<rect width="163.84" height="69.43" fill="white"/>
</clipPath>
</defs>
</svg>
